<svg width="150" height="40" viewBox="0 0 150 40" fill="none" xmlns="http://www.w3.org/2000/svg">
<path d="M2.09008 38.7698C2.16341 38.7765 2.26008 38.7832 2.38008 38.7898C2.50008 38.7898 2.66341 38.7898 2.87008 38.7898C3.71674 38.7898 4.34675 38.5765 4.76008 38.1498C5.18008 37.7165 5.39008 37.1132 5.39008 36.3398C5.39008 35.5532 5.18674 34.9498 4.78008 34.5298C4.37341 34.1098 3.74341 33.8998 2.89008 33.8998C2.51674 33.8998 2.25008 33.9098 2.09008 33.9298V38.7698ZM6.71008 36.3398C6.71008 36.9398 6.61674 37.4632 6.43008 37.9098C6.24341 38.3498 5.97674 38.7198 5.63008 39.0198C5.29008 39.3132 4.87674 39.5332 4.39008 39.6798C3.91008 39.8198 3.37674 39.8898 2.79008 39.8898C2.51008 39.8898 2.19341 39.8765 1.84008 39.8498C1.48674 39.8298 1.15008 39.7832 0.830078 39.7098V32.9798C1.15008 32.9065 1.49008 32.8598 1.85008 32.8398C2.21008 32.8198 2.53008 32.8098 2.81008 32.8098C3.39008 32.8098 3.92008 32.8798 4.40008 33.0198C4.88008 33.1532 5.29008 33.3665 5.63008 33.6598C5.97674 33.9465 6.24341 34.3132 6.43008 34.7598C6.61674 35.1998 6.71008 35.7265 6.71008 36.3398Z" fill="#969699"/>
<path d="M11.8959 32.8098C12.8959 32.8098 13.6593 32.9932 14.1859 33.3598C14.7193 33.7265 14.9859 34.2865 14.9859 35.0398C14.9859 35.9798 14.5226 36.6165 13.5959 36.9498C13.7226 37.1032 13.8659 37.2898 14.0259 37.5098C14.1859 37.7298 14.3493 37.9698 14.5159 38.2298C14.6826 38.4832 14.8426 38.7465 14.9959 39.0198C15.1493 39.2865 15.2859 39.5498 15.4059 39.8098H13.9959C13.8693 39.5698 13.7326 39.3298 13.5859 39.0898C13.4393 38.8432 13.2893 38.6065 13.1359 38.3798C12.9893 38.1465 12.8426 37.9298 12.6959 37.7298C12.5493 37.5232 12.4126 37.3398 12.2859 37.1798C12.1926 37.1865 12.1126 37.1898 12.0459 37.1898C11.9793 37.1898 11.9159 37.1898 11.8559 37.1898H11.2459V39.8098H9.98594V32.9798C10.2926 32.9132 10.6193 32.8698 10.9659 32.8498C11.3126 32.8232 11.6226 32.8098 11.8959 32.8098ZM11.9859 33.8998C11.7193 33.8998 11.4726 33.9098 11.2459 33.9298V36.1698H11.7959C12.1026 36.1698 12.3726 36.1532 12.6059 36.1198C12.8393 36.0865 13.0326 36.0265 13.1859 35.9398C13.3459 35.8532 13.4659 35.7365 13.5459 35.5898C13.6259 35.4432 13.6659 35.2565 13.6659 35.0298C13.6659 34.8165 13.6259 34.6365 13.5459 34.4898C13.4659 34.3432 13.3493 34.2265 13.1959 34.1398C13.0493 34.0532 12.8726 33.9932 12.6659 33.9598C12.4593 33.9198 12.2326 33.8998 11.9859 33.8998Z" fill="#969699"/>
<path d="M18.2824 39.8098V32.8798H22.7324V33.9498H19.5424V35.6598H22.3824V36.7098H19.5424V38.7398H22.9724V39.8098H18.2824Z" fill="#969699"/>
<path d="M30.7883 39.8098C30.6949 39.5365 30.5983 39.2665 30.4983 38.9998C30.3983 38.7332 30.3016 38.4598 30.2083 38.1798H27.2883C27.1949 38.4598 27.0983 38.7365 26.9983 39.0098C26.9049 39.2765 26.8116 39.5432 26.7183 39.8098H25.4083C25.6683 39.0698 25.9149 38.3865 26.1483 37.7598C26.3816 37.1332 26.6083 36.5398 26.8283 35.9798C27.0549 35.4198 27.2783 34.8865 27.4983 34.3798C27.7183 33.8732 27.9449 33.3732 28.1783 32.8798H29.3683C29.6016 33.3732 29.8283 33.8732 30.0483 34.3798C30.2683 34.8865 30.4883 35.4198 30.7083 35.9798C30.9349 36.5398 31.1649 37.1332 31.3983 37.7598C31.6383 38.3865 31.8883 39.0698 32.1483 39.8098H30.7883ZM28.7483 34.2198C28.5949 34.5732 28.4183 35.0032 28.2183 35.5098C28.0249 36.0165 27.8216 36.5665 27.6083 37.1598H29.8883C29.6749 36.5665 29.4683 36.0132 29.2683 35.4998C29.0683 34.9865 28.8949 34.5598 28.7483 34.2198Z" fill="#969699"/>
<path d="M36.4342 32.8798C36.5809 33.1332 36.7442 33.4432 36.9242 33.8098C37.1042 34.1765 37.2875 34.5632 37.4742 34.9698C37.6609 35.3698 37.8442 35.7798 38.0242 36.1998C38.2109 36.6132 38.3809 36.9965 38.5342 37.3498C38.6876 36.9965 38.8542 36.6132 39.0342 36.1998C39.2142 35.7798 39.3976 35.3698 39.5842 34.9698C39.7709 34.5632 39.9542 34.1765 40.1342 33.8098C40.3142 33.4432 40.4776 33.1332 40.6242 32.8798H41.7642C41.8242 33.3865 41.8809 33.9265 41.9342 34.4998C41.9876 35.0665 42.0342 35.6498 42.0742 36.2498C42.1209 36.8432 42.1609 37.4432 42.1942 38.0498C42.2342 38.6498 42.2675 39.2365 42.2942 39.8098H41.0542C41.0276 39.0032 40.9942 38.1732 40.9542 37.3198C40.9209 36.4665 40.8675 35.6398 40.7942 34.8398C40.7209 34.9932 40.6342 35.1765 40.5342 35.3898C40.4342 35.6032 40.3276 35.8365 40.2142 36.0898C40.1009 36.3365 39.9842 36.5932 39.8642 36.8598C39.7509 37.1265 39.6375 37.3865 39.5242 37.6398C39.4175 37.8865 39.3175 38.1198 39.2242 38.3398C39.1309 38.5532 39.0509 38.7365 38.9842 38.8898H38.0442C37.9775 38.7365 37.8976 38.5498 37.8042 38.3298C37.7109 38.1098 37.6076 37.8765 37.4942 37.6298C37.3876 37.3765 37.2742 37.1165 37.1542 36.8498C37.0409 36.5832 36.9275 36.3265 36.8142 36.0798C36.7009 35.8332 36.5942 35.6032 36.4942 35.3898C36.3942 35.1698 36.3076 34.9865 36.2342 34.8398C36.1609 35.6398 36.1042 36.4665 36.0642 37.3198C36.0309 38.1732 36.0009 39.0032 35.9742 39.8098H34.7342C34.7609 39.2365 34.7909 38.6432 34.8242 38.0298C34.8642 37.4165 34.9042 36.8098 34.9442 36.2098C34.9909 35.6032 35.0409 35.0165 35.0942 34.4498C35.1475 33.8832 35.2042 33.3598 35.2642 32.8798H36.4342Z" fill="#969699"/>
<path d="M51.9861 39.8898C51.6194 39.8898 51.2494 39.8765 50.8761 39.8498C50.5028 39.8298 50.1761 39.7832 49.8961 39.7098V32.9798C50.0428 32.9532 50.1994 32.9298 50.3661 32.9098C50.5328 32.8832 50.7028 32.8632 50.8761 32.8498C51.0494 32.8365 51.2194 32.8265 51.3861 32.8198C51.5594 32.8132 51.7228 32.8098 51.8761 32.8098C52.2961 32.8098 52.6861 32.8432 53.0461 32.9098C53.4061 32.9698 53.7161 33.0732 53.9761 33.2198C54.2428 33.3665 54.4494 33.5598 54.5961 33.7998C54.7428 34.0398 54.8161 34.3365 54.8161 34.6898C54.8161 35.0165 54.7361 35.2965 54.5761 35.5298C54.4228 35.7632 54.2061 35.9498 53.9261 36.0898C54.3461 36.2298 54.6561 36.4365 54.8561 36.7098C55.0561 36.9832 55.1561 37.3298 55.1561 37.7498C55.1561 38.4632 54.8961 38.9998 54.3761 39.3598C53.8561 39.7132 53.0594 39.8898 51.9861 39.8898ZM51.1361 36.6898V38.7998C51.2761 38.8132 51.4261 38.8232 51.5861 38.8298C51.7461 38.8365 51.8928 38.8398 52.0261 38.8398C52.2861 38.8398 52.5261 38.8232 52.7461 38.7898C52.9728 38.7565 53.1661 38.6998 53.3261 38.6198C53.4928 38.5332 53.6228 38.4198 53.7161 38.2798C53.8161 38.1398 53.8661 37.9598 53.8661 37.7398C53.8661 37.3465 53.7228 37.0732 53.4361 36.9198C53.1494 36.7665 52.7528 36.6898 52.2461 36.6898H51.1361ZM51.1361 35.6998H52.0261C52.5061 35.6998 52.8828 35.6332 53.1561 35.4998C53.4294 35.3598 53.5661 35.1132 53.5661 34.7598C53.5661 34.4265 53.4228 34.1898 53.1361 34.0498C52.8561 33.9098 52.4894 33.8398 52.0361 33.8398C51.8428 33.8398 51.6694 33.8432 51.5161 33.8498C51.3694 33.8565 51.2428 33.8665 51.1361 33.8798V35.6998Z" fill="#969699"/>
<path d="M58.3684 32.8798H59.6284V39.8098H58.3684V32.8798Z" fill="#969699"/>
<path d="M66.4283 33.8298C65.715 33.8298 65.1683 34.0532 64.7883 34.4998C64.4149 34.9398 64.2283 35.5532 64.2283 36.3398C64.2283 36.7132 64.2716 37.0565 64.3583 37.3698C64.4516 37.6765 64.5849 37.9398 64.7583 38.1598C64.9383 38.3798 65.1583 38.5532 65.4183 38.6798C65.6849 38.7998 65.9949 38.8598 66.3483 38.8598C66.5683 38.8598 66.7583 38.8532 66.9183 38.8398C67.0783 38.8198 67.2049 38.7965 67.2983 38.7698V36.2798H68.5583V39.6098C68.3849 39.6765 68.0916 39.7498 67.6783 39.8298C67.265 39.9098 66.7883 39.9498 66.2483 39.9498C65.7483 39.9498 65.2916 39.8698 64.8783 39.7098C64.4649 39.5498 64.1116 39.3165 63.8183 39.0098C63.5316 38.7032 63.3083 38.3265 63.1483 37.8798C62.9883 37.4332 62.9083 36.9198 62.9083 36.3398C62.9083 35.7598 62.9949 35.2465 63.1683 34.7998C63.3483 34.3532 63.5916 33.9765 63.8983 33.6698C64.2049 33.3565 64.5649 33.1198 64.9783 32.9598C65.3916 32.7998 65.8316 32.7198 66.2983 32.7198C66.6183 32.7198 66.9016 32.7432 67.1483 32.7898C67.4016 32.8298 67.6183 32.8765 67.7983 32.9298C67.9783 32.9832 68.1249 33.0398 68.2383 33.0998C68.3583 33.1598 68.4416 33.2032 68.4883 33.2298L68.1083 34.2598C67.9083 34.1398 67.6583 34.0398 67.3583 33.9598C67.065 33.8732 66.755 33.8298 66.4283 33.8298Z" fill="#969699"/>
<path d="M80.5884 33.6598C80.6951 34.0198 80.8084 34.3965 80.9284 34.7898C81.0484 35.1765 81.1718 35.5665 81.2984 35.9598C81.4318 36.3465 81.5618 36.7298 81.6884 37.1098C81.8218 37.4832 81.9484 37.8365 82.0684 38.1698C82.1684 37.8098 82.2651 37.4198 82.3584 36.9998C82.4518 36.5732 82.5451 36.1332 82.6384 35.6798C82.7318 35.2198 82.8218 34.7532 82.9084 34.2798C83.0018 33.8065 83.0884 33.3398 83.1684 32.8798H84.4684C84.2351 34.1332 83.9751 35.3398 83.6884 36.4998C83.4018 37.6532 83.0818 38.7565 82.7284 39.8098H81.5284C81.0084 38.4632 80.5051 36.9932 80.0184 35.3998C79.7718 36.2065 79.5218 36.9732 79.2684 37.6998C79.0151 38.4265 78.7618 39.1298 78.5084 39.8098H77.3084C76.9484 38.7565 76.6251 37.6532 76.3384 36.4998C76.0584 35.3398 75.8018 34.1332 75.5684 32.8798H76.9184C76.9984 33.3332 77.0818 33.7965 77.1684 34.2698C77.2618 34.7432 77.3551 35.2098 77.4484 35.6698C77.5484 36.1232 77.6484 36.5632 77.7484 36.9898C77.8484 37.4165 77.9484 37.8098 78.0484 38.1698C78.1751 37.8298 78.3018 37.4732 78.4284 37.0998C78.5618 36.7198 78.6918 36.3365 78.8184 35.9498C78.9451 35.5565 79.0651 35.1665 79.1784 34.7798C79.2984 34.3932 79.4084 34.0198 79.5084 33.6598H80.5884Z" fill="#969699"/>
<path d="M87.4332 32.8798H88.6932V39.8098H87.4332V32.8798Z" fill="#969699"/>
<path d="M96.9231 39.8098C96.6965 39.4298 96.4431 39.0232 96.1631 38.5898C95.8831 38.1498 95.5931 37.7098 95.2931 37.2698C94.9931 36.8232 94.6865 36.3932 94.3731 35.9798C94.0665 35.5598 93.7731 35.1832 93.4931 34.8498V39.8098H92.2531V32.8798H93.2831C93.5498 33.1598 93.8365 33.4932 94.1431 33.8798C94.4498 34.2598 94.7565 34.6565 95.0631 35.0698C95.3765 35.4832 95.6765 35.8998 95.9631 36.3198C96.2565 36.7332 96.5165 37.1198 96.7431 37.4798V32.8798H97.9931V39.8098H96.9231Z" fill="#969699"/>
<path d="M107.879 39.8898C107.513 39.8898 107.143 39.8765 106.769 39.8498C106.396 39.8298 106.069 39.7832 105.789 39.7098V32.9798C105.936 32.9532 106.093 32.9298 106.259 32.9098C106.426 32.8832 106.596 32.8632 106.769 32.8498C106.943 32.8365 107.113 32.8265 107.279 32.8198C107.453 32.8132 107.616 32.8098 107.769 32.8098C108.189 32.8098 108.579 32.8432 108.939 32.9098C109.299 32.9698 109.609 33.0732 109.869 33.2198C110.136 33.3665 110.343 33.5598 110.489 33.7998C110.636 34.0398 110.709 34.3365 110.709 34.6898C110.709 35.0165 110.629 35.2965 110.469 35.5298C110.316 35.7632 110.099 35.9498 109.819 36.0898C110.239 36.2298 110.549 36.4365 110.749 36.7098C110.949 36.9832 111.049 37.3298 111.049 37.7498C111.049 38.4632 110.789 38.9998 110.269 39.3598C109.749 39.7132 108.953 39.8898 107.879 39.8898ZM107.029 36.6898V38.7998C107.169 38.8132 107.319 38.8232 107.479 38.8298C107.639 38.8365 107.786 38.8398 107.919 38.8398C108.179 38.8398 108.419 38.8232 108.639 38.7898C108.866 38.7565 109.059 38.6998 109.219 38.6198C109.386 38.5332 109.516 38.4198 109.609 38.2798C109.709 38.1398 109.759 37.9598 109.759 37.7398C109.759 37.3465 109.616 37.0732 109.329 36.9198C109.043 36.7665 108.646 36.6898 108.139 36.6898H107.029ZM107.029 35.6998H107.919C108.399 35.6998 108.776 35.6332 109.049 35.4998C109.323 35.3598 109.459 35.1132 109.459 34.7598C109.459 34.4265 109.316 34.1898 109.029 34.0498C108.749 33.9098 108.383 33.8398 107.929 33.8398C107.736 33.8398 107.563 33.8432 107.409 33.8498C107.263 33.8565 107.136 33.8665 107.029 33.8798V35.6998Z" fill="#969699"/>
<path d="M114.262 32.8798H115.522V39.8098H114.262V32.8798Z" fill="#969699"/>
<path d="M122.322 33.8298C121.608 33.8298 121.062 34.0532 120.682 34.4998C120.308 34.9398 120.122 35.5532 120.122 36.3398C120.122 36.7132 120.165 37.0565 120.252 37.3698C120.345 37.6765 120.478 37.9398 120.652 38.1598C120.832 38.3798 121.052 38.5532 121.312 38.6798C121.578 38.7998 121.888 38.8598 122.242 38.8598C122.462 38.8598 122.652 38.8532 122.812 38.8398C122.972 38.8198 123.098 38.7965 123.192 38.7698V36.2798H124.452V39.6098C124.278 39.6765 123.985 39.7498 123.572 39.8298C123.158 39.9098 122.682 39.9498 122.142 39.9498C121.642 39.9498 121.185 39.8698 120.772 39.7098C120.358 39.5498 120.005 39.3165 119.712 39.0098C119.425 38.7032 119.202 38.3265 119.042 37.8798C118.882 37.4332 118.802 36.9198 118.802 36.3398C118.802 35.7598 118.888 35.2465 119.062 34.7998C119.242 34.3532 119.485 33.9765 119.792 33.6698C120.098 33.3565 120.458 33.1198 120.872 32.9598C121.285 32.7998 121.725 32.7198 122.192 32.7198C122.512 32.7198 122.795 32.7432 123.042 32.7898C123.295 32.8298 123.512 32.8765 123.692 32.9298C123.872 32.9832 124.018 33.0398 124.132 33.0998C124.252 33.1598 124.335 33.2032 124.382 33.2298L124.002 34.2598C123.802 34.1398 123.552 34.0398 123.252 33.9598C122.958 33.8732 122.648 33.8298 122.322 33.8298Z" fill="#969699"/>
<path d="M131.048 33.8298C130.334 33.8298 129.788 34.0532 129.408 34.4998C129.034 34.9398 128.848 35.5532 128.848 36.3398C128.848 36.7132 128.891 37.0565 128.978 37.3698C129.071 37.6765 129.204 37.9398 129.378 38.1598C129.558 38.3798 129.778 38.5532 130.038 38.6798C130.304 38.7998 130.614 38.8598 130.968 38.8598C131.188 38.8598 131.378 38.8532 131.538 38.8398C131.698 38.8198 131.824 38.7965 131.918 38.7698V36.2798H133.178V39.6098C133.004 39.6765 132.711 39.7498 132.298 39.8298C131.884 39.9098 131.408 39.9498 130.868 39.9498C130.368 39.9498 129.911 39.8698 129.498 39.7098C129.084 39.5498 128.731 39.3165 128.438 39.0098C128.151 38.7032 127.928 38.3265 127.768 37.8798C127.608 37.4332 127.528 36.9198 127.528 36.3398C127.528 35.7598 127.614 35.2465 127.788 34.7998C127.968 34.3532 128.211 33.9765 128.518 33.6698C128.824 33.3565 129.184 33.1198 129.598 32.9598C130.011 32.7998 130.451 32.7198 130.918 32.7198C131.238 32.7198 131.521 32.7432 131.768 32.7898C132.021 32.8298 132.238 32.8765 132.418 32.9298C132.598 32.9832 132.744 33.0398 132.858 33.0998C132.978 33.1598 133.061 33.2032 133.108 33.2298L132.728 34.2598C132.528 34.1398 132.278 34.0398 131.978 33.9598C131.684 33.8732 131.374 33.8298 131.048 33.8298Z" fill="#969699"/>
<path d="M136.534 39.8098V32.8798H140.984V33.9498H137.794V35.6598H140.634V36.7098H137.794V38.7398H141.224V39.8098H136.534Z" fill="#969699"/>
<path d="M146.203 32.8098C147.203 32.8098 147.967 32.9932 148.493 33.3598C149.027 33.7265 149.293 34.2865 149.293 35.0398C149.293 35.9798 148.83 36.6165 147.903 36.9498C148.03 37.1032 148.173 37.2898 148.333 37.5098C148.493 37.7298 148.657 37.9698 148.823 38.2298C148.99 38.4832 149.15 38.7465 149.303 39.0198C149.457 39.2865 149.593 39.5498 149.713 39.8098H148.303C148.177 39.5698 148.04 39.3298 147.893 39.0898C147.747 38.8432 147.597 38.6065 147.443 38.3798C147.297 38.1465 147.15 37.9298 147.003 37.7298C146.857 37.5232 146.72 37.3398 146.593 37.1798C146.5 37.1865 146.42 37.1898 146.353 37.1898C146.287 37.1898 146.223 37.1898 146.163 37.1898H145.553V39.8098H144.293V32.9798C144.6 32.9132 144.927 32.8698 145.273 32.8498C145.62 32.8232 145.93 32.8098 146.203 32.8098ZM146.293 33.8998C146.027 33.8998 145.78 33.9098 145.553 33.9298V36.1698H146.103C146.41 36.1698 146.68 36.1532 146.913 36.1198C147.147 36.0865 147.34 36.0265 147.493 35.9398C147.653 35.8532 147.773 35.7365 147.853 35.5898C147.933 35.4432 147.973 35.2565 147.973 35.0298C147.973 34.8165 147.933 34.6365 147.853 34.4898C147.773 34.3432 147.657 34.2265 147.503 34.1398C147.357 34.0532 147.18 33.9932 146.973 33.9598C146.767 33.9198 146.54 33.8998 146.293 33.8998Z" fill="#969699"/>
<path fill-rule="evenodd" clip-rule="evenodd" d="M51.3418 8.2826C51.3418 8.2826 52.6246 8.18784 53.0733 7.42904C53.5216 6.66938 56.0025 0.894367 56.0025 0.894367C56.0025 0.894367 56.9825 -0.128639 57.9754 0.787722C58.7708 1.52195 60.9559 7.23954 60.9559 7.23954C60.9559 7.23954 61.3413 8.15586 62.3667 8.25144C63.3924 8.34539 69.4818 9.01036 69.4818 9.01036C69.4818 9.01036 71.1878 9.71578 70.5067 10.875C70.1756 11.4391 64.8669 16.1886 64.8669 16.1886C64.8669 16.1886 64.2248 17.0733 64.4181 17.7378C64.6103 18.4015 65.9238 24.0313 65.9238 24.0313C65.9238 24.0313 66.0205 25.1695 65.5397 25.6758C65.0589 26.1819 64.7697 26.2127 64.0328 25.9604C63.2961 25.707 57.7195 22.2285 57.7195 22.2285C57.7195 22.2285 57.0783 21.9439 56.5017 22.2593C55.9252 22.576 50.4769 25.7697 50.4769 25.7697C50.4769 25.7697 48.5224 26.9088 48.1054 24.9793C48.0417 23.4939 49.452 19.1291 49.452 19.1291C49.452 19.1291 50.0289 17.1681 49.1632 16.2825C48.2974 15.3974 43.8754 11.35 43.8754 11.35C43.8754 11.35 42.6576 10.0215 44.0679 9.19895C45.5098 8.69363 51.3418 8.2826 51.3418 8.2826Z" fill="#E64749"/>
<path d="M12.7096 17.2647C12.7096 15.537 12.3658 14.1682 11.6798 13.1579C10.9925 12.1484 9.90796 11.6444 8.42324 11.6444C7.74873 11.6444 7.11248 11.7457 6.51735 11.947C5.92017 12.1484 5.44309 12.3741 5.08281 12.6202V22.7493C5.37563 22.8166 5.75195 22.8798 6.21382 22.9351C6.67364 22.9917 7.23135 23.0188 7.88446 23.0188C9.39098 23.0188 10.5722 22.5086 11.4268 21.488C12.2815 20.4679 12.7096 19.0602 12.7096 17.2647ZM16.8927 17.3312C16.8927 18.7455 16.6843 20.0183 16.2684 21.1509C15.8527 22.2842 15.2562 23.2543 14.4806 24.0619C13.7042 24.87 12.7644 25.487 11.6625 25.9139C10.5599 26.3389 9.31202 26.5521 7.91736 26.5521C6.56753 26.5521 5.28063 26.4513 4.05336 26.2495C2.82773 26.0473 1.80981 25.8237 1 25.5767V0.673932L5.08281 0V9.12044C5.55495 8.87359 6.13445 8.64919 6.82006 8.4478C7.50772 8.24514 8.26613 8.14503 9.09815 8.14503C10.3353 8.14503 11.4433 8.36374 12.4226 8.80057C13.4006 9.23823 14.2162 9.86006 14.8688 10.669C15.5208 11.4758 16.0209 12.4467 16.3696 13.5784C16.7184 14.7126 16.8927 15.9636 16.8927 17.3312Z" fill="#858585"/>
<path d="M24.4849 26.1145H20.4022V8.51422H24.4849V26.1145ZM24.9237 3.36639C24.9237 4.12851 24.6762 4.73394 24.181 5.1835C23.6858 5.63225 23.1014 5.85619 22.4269 5.85619C21.7293 5.85619 21.133 5.63225 20.6379 5.1835C20.1431 4.73394 19.895 4.12851 19.895 3.36639C19.895 2.58129 20.1431 1.96396 20.6379 1.51439C21.133 1.06606 21.7293 0.841675 22.4269 0.841675C23.1014 0.841675 23.6858 1.06606 24.181 1.51439C24.6762 1.96396 24.9237 2.58129 24.9237 3.36639Z" fill="#858585"/>
<path d="M28.7366 3.87051L32.8198 3.19739V8.5142H39.0955V11.9135H32.8198V19.0818C32.8198 20.4941 33.0448 21.5036 33.4942 22.1098C33.9443 22.7161 34.7088 23.0188 35.7888 23.0188C36.5316 23.0188 37.1897 22.9405 37.763 22.7826C38.3363 22.6258 38.7912 22.4803 39.1301 22.3461L39.8042 25.5767C39.3321 25.7781 38.7127 25.9861 37.9481 26.1994C37.1831 26.4119 36.2828 26.5181 35.2488 26.5181C33.989 26.5181 32.9378 26.3495 32.0938 26.0132C31.2507 25.6768 30.5816 25.1899 30.086 24.55C29.5916 23.9105 29.2429 23.1365 29.0402 22.2276C28.8373 21.3194 28.7366 20.2816 28.7366 19.1155V3.87051Z" fill="#858585"/>
<path d="M81.3465 22.9515C82.8761 22.9515 83.9898 22.6935 84.6873 22.1774C85.3837 21.6614 85.7332 20.9328 85.7332 19.9899C85.7332 19.4291 85.616 18.9468 85.3783 18.5427C85.1423 18.1391 84.8063 17.7744 84.3673 17.4487C83.9282 17.1243 83.393 16.8215 82.7634 16.5406C82.1337 16.2609 81.4144 15.9856 80.6041 15.7153C79.7943 15.4245 79.0125 15.1045 78.2594 14.7571C77.5051 14.4097 76.8422 13.9769 76.2688 13.4605C75.6951 12.9453 75.2345 12.3284 74.8848 11.6097C74.5357 10.8931 74.3621 10.0289 74.3621 9.01948C74.3621 6.91108 75.0934 5.25556 76.5563 4.05577C78.0168 2.85556 80.0082 2.25464 82.5277 2.25464C83.9898 2.25464 85.2887 2.4179 86.4254 2.74358C87.5606 3.06887 88.4548 3.42203 89.1074 3.80391L87.7921 7.23595C87.0267 6.81017 86.1881 6.48448 85.278 6.25929C84.3673 6.03615 83.4275 5.92293 82.4602 5.92293C81.3128 5.92293 80.4194 6.15879 79.7779 6.63051C79.1371 7.10099 78.8163 7.76304 78.8163 8.61544C78.8163 9.13146 78.9228 9.57481 79.1371 9.94479C79.3501 10.3148 79.6537 10.6458 80.0477 10.9366C80.4417 11.2295 80.9023 11.4985 81.4308 11.7455C81.9593 11.9917 82.5388 12.2279 83.1698 12.4511C84.2703 12.8563 85.2549 13.2657 86.1214 13.6804C86.9877 14.0955 87.7189 14.5885 88.3149 15.1612C88.9112 15.7338 89.3661 16.4064 89.6808 17.1801C89.9949 17.9542 90.1541 18.8914 90.1541 19.9899C90.1541 22.0991 89.4056 23.732 87.9097 24.8862C86.4131 26.0426 84.2263 26.6196 81.3465 26.6196C80.3792 26.6196 79.4961 26.5578 78.6983 26.4347C77.8999 26.3113 77.1909 26.1599 76.5728 25.9806C75.953 25.801 75.4187 25.6155 74.9691 25.4253C74.5192 25.2345 74.1598 25.0605 73.8904 24.9035L75.1382 21.437C75.7461 21.7734 76.5662 22.1101 77.6022 22.4465C78.6362 22.7829 79.884 22.9515 81.3465 22.9515Z" fill="#858585"/>
<path d="M92.751 3.87051L96.8329 3.19739V8.5142H103.11V11.9135H96.8329V19.0818C96.8329 20.4941 97.0579 21.5036 97.5088 22.1098C97.9582 22.7161 98.7237 23.0188 99.8028 23.0188C100.545 23.0188 101.203 22.9405 101.777 22.7826C102.35 22.6258 102.806 22.4803 103.143 22.3461L103.818 25.5767C103.346 25.7781 102.727 25.9861 101.963 26.1994C101.198 26.4119 100.298 26.5181 99.2633 26.5181C98.0034 26.5181 96.9519 26.3495 96.1091 26.0132C95.2639 25.6768 94.5947 25.1899 94.1004 24.55C93.6056 23.9105 93.2565 23.1365 93.0546 22.2276C92.8526 21.3194 92.751 20.2816 92.751 19.1155V3.87051Z" fill="#858585"/>
<path d="M112.525 23.2543C113.784 23.2543 114.74 23.1866 115.393 23.0529V18.5429C115.168 18.4757 114.841 18.4088 114.415 18.3415C113.987 18.2743 113.515 18.2402 112.997 18.2402C112.548 18.2402 112.093 18.2743 111.631 18.3415C111.169 18.4088 110.753 18.531 110.383 18.7119C110.012 18.8911 109.713 19.1438 109.489 19.4683C109.263 19.794 109.151 20.2034 109.151 20.6976C109.151 21.6615 109.454 22.3289 110.062 22.6989C110.669 23.0693 111.49 23.2543 112.525 23.2543ZM112.188 8.07739C113.537 8.07739 114.672 8.24512 115.596 8.5815C116.517 8.91822 117.254 9.38959 117.806 9.99584C118.357 10.6005 118.751 11.3364 118.987 12.1998C119.223 13.0632 119.341 14.0116 119.341 15.0428V25.7105C118.71 25.8454 117.76 26.0086 116.49 26.1995C115.219 26.389 113.784 26.4857 112.188 26.4857C111.13 26.4857 110.164 26.3836 109.286 26.1822C108.408 25.9804 107.66 25.6551 107.042 25.2064C106.422 24.758 105.94 24.1751 105.59 23.4556C105.242 22.7382 105.067 21.8527 105.067 20.7981C105.067 19.7886 105.265 18.9359 105.658 18.2402C106.051 17.5445 106.586 16.9784 107.261 16.5408C107.936 16.1031 108.717 15.7893 109.605 15.5978C110.494 15.4082 111.422 15.3127 112.39 15.3127C112.84 15.3127 113.312 15.3406 113.808 15.3972C114.302 15.4529 114.83 15.5477 115.393 15.6827V15.0099C115.393 14.5382 115.336 14.0899 115.224 13.6641C115.111 13.2375 114.915 12.8617 114.634 12.5361C114.352 12.2108 113.981 11.959 113.52 11.7785C113.059 11.5997 112.479 11.5094 111.783 11.5094C110.838 11.5094 109.971 11.577 109.184 11.7117C108.397 11.8458 107.755 12.0028 107.261 12.1821L106.755 8.88427C107.272 8.70579 108.026 8.52615 109.015 8.34651C110.005 8.16686 111.063 8.07739 112.188 8.07739Z" fill="#858585"/>
<path d="M133.647 12.1824C133.309 12.0712 132.842 11.9526 132.247 11.8296C131.65 11.7065 130.959 11.6446 130.172 11.6446C129.722 11.6446 129.244 11.6893 128.738 11.7787C128.232 11.8689 127.877 11.9473 127.673 12.0146V26.1147H123.591V9.3558C124.379 9.06418 125.363 8.78966 126.544 8.53165C127.725 8.27364 129.035 8.14493 130.475 8.14493C130.744 8.14493 131.06 8.16132 131.419 8.19539C131.779 8.22818 132.139 8.27364 132.499 8.3291C132.859 8.38573 133.208 8.4534 133.545 8.53165C133.883 8.61002 134.153 8.68304 134.355 8.75036L133.647 12.1824Z" fill="#858585"/>
<path d="M148.797 11.3756C148.347 11.8461 147.756 12.5081 147.026 13.3604C146.294 14.2136 145.512 15.1611 144.679 16.2043C143.848 17.2474 143.01 18.336 142.166 19.4686C141.323 20.6019 140.563 21.6839 139.889 22.7164H149V26.1148H134.962V23.5909C135.458 22.6934 136.077 21.718 136.818 20.6629C137.561 19.6088 138.327 18.5493 139.113 17.4829C139.901 16.4176 140.682 15.4027 141.458 14.4372C142.234 13.4725 142.927 12.6319 143.533 11.9137H135.402V8.51413H148.797V11.3756Z" fill="#858585"/>
</svg>
