<svg xmlns="http://www.w3.org/2000/svg" width="208" height="127" viewBox="0 0 208 127">
  <g fill="#1e727c" transform="rotate(15 164.51 57.759)">
    <g transform="translate(.192 .69)">
      <path d="M139.854286,62.6281032 L139.831872,62.5518654 C138.559683,57.5721516 136.673869,53.6801533 134.126989,49.890893 C132.369444,47.2760091 130.557467,45.3481501 128.692549,44.1047168 C126.869973,42.8491642 125.484322,42.1816242 124.612598,42.0726587 C123.756074,41.9655932 122.322647,42.1447715 120.213864,42.6279901 C114.657652,43.952933 109.061569,47.3991695 103.519066,52.9416722 C98.231674,58.2290643 97.6075617,71.3784653 101.825252,92.6426592 C107.671369,121.960499 117.234146,134.693198 130.594916,131.812285 C133.957326,131.079452 136.778199,129.883989 139.149373,128.178408 C141.488103,126.496163 143.514462,123.910445 145.191577,120.470208 C146.876856,117.013227 147.788914,112.246635 147.831455,106.337379 C147.918239,100.26251 147.143086,93.0350314 145.498892,84.502998 C144.815513,80.9568122 143.980322,77.5060143 142.855179,73.4009449 C142.738088,72.9737408 140.486543,65.0227596 139.930591,62.8570183 L139.854286,62.6281032 Z M142.048507,62.1926076 L142.070921,62.2688455 C142.600974,64.3436261 144.871019,72.3598524 144.995575,72.8142915 C146.134611,76.9700472 146.982545,80.4735 147.678133,84.0830401 C149.348949,92.7532188 150.139744,100.12655 150.05065,106.361213 C150.005984,112.569832 149.032944,117.655123 147.186487,121.442727 C145.358495,125.192454 143.106874,128.065617 140.445309,129.980075 C137.815584,131.871632 134.714415,133.185882 131.065116,133.981239 C116.042216,137.220552 105.707299,123.459758 99.6485444,93.0755539 C95.2913267,71.1079148 95.9429358,57.3791859 101.949758,51.3723639 C107.763569,45.5585523 113.707919,41.8978431 119.708594,40.466957 C122.064472,39.9270684 123.702608,39.7223015 124.887873,39.8704597 C126.193938,40.0337178 127.860696,40.8366812 129.937604,42.2675962 C132.053549,43.6782262 134.060582,45.8136166 135.968931,48.6528668 C138.640579,52.6277589 140.630967,56.7317937 141.972233,61.9637847 L142.048507,62.1926076 Z M116.663522,56.8861656 C120.325539,56.109374 123.425277,59.4198944 126.270218,66.4848798 C128.91343,73.1601118 130.929746,79.9707764 132.31882,86.9161466 C133.722045,93.932273 134.205793,101.042239 133.758583,108.242305 C133.279352,115.910014 132.032971,119.972737 129.421418,120.532355 L129.295028,120.559439 L129.165797,120.556746 C126.415501,120.499448 123.781978,117.147692 120.851672,110.578134 C118.034139,104.261407 115.84819,97.0167334 114.338985,88.9395508 C110.396076,68.6730548 110.914044,58.0682791 116.663522,56.8861656 Z M131.543542,108.104295 C131.978798,101.096664 131.508151,94.179248 130.142581,87.3513944 C128.779677,80.5368748 126.801185,73.8539699 124.209144,67.307918 C121.732068,61.1565115 119.328565,58.589571 117.117264,59.0586129 C113.338233,59.8356098 112.856726,69.7011659 116.518262,88.5197593 L116.519818,88.5279178 C117.998245,96.441849 120.134335,103.521779 122.878523,109.674071 C125.37249,115.265384 127.561617,118.126383 129.069582,118.326824 C130.141206,117.884601 131.14809,114.431526 131.543542,108.104295 Z M91.2589293,56.9434032 L91.229608,56.8306993 C90.0637631,52.349483 88.3797936,48.798945 86.1740942,45.4289596 C84.7306718,43.1607243 83.1478507,41.4196211 81.4917976,40.2306598 C79.9329874,39.1115141 78.7187047,38.4890666 78.023935,38.3848512 C77.3500909,38.2837746 76.1419561,38.4201769 74.3115058,38.8122521 C69.5612356,39.9149934 64.8166492,42.913829 60.1262243,47.8194111 C55.6503591,52.5005912 55.230817,64.2907989 59.0802783,83.3631298 C64.3932539,109.666714 72.7303614,121.152691 84.0748808,118.718795 C87.0485773,118.062832 89.4338455,117.034699 91.3714061,115.541285 C93.3351785,114.068456 95.0467599,111.779347 96.443629,108.731633 C97.8437151,105.676899 98.5620582,101.463335 98.5620582,96.0998924 C98.5620582,90.6693701 97.8138956,84.122947 96.3179879,76.5113275 C95.6944931,73.2427035 94.9315299,70.0773226 93.8996851,66.3085074 C93.7375854,65.7164379 91.8669999,59.1080509 91.3476214,57.1207874 L91.2589293,56.9434032 Z M93.4373927,56.3377413 L93.466768,56.4515707 C93.9319989,58.2543404 95.8688479,65.0964241 96.0402455,65.7224542 C97.0862599,69.5430241 97.8621881,72.7621936 98.4968426,76.089414 C100.017378,83.8262573 100.781395,90.511406 100.781395,96.0998924 C100.781395,101.756949 100.01127,106.27425 98.4611503,109.65633 C96.9197872,113.019304 94.9878467,115.603126 92.7146686,117.307889 C90.5100682,119.007268 87.8267651,120.163864 84.5466914,120.887391 C71.5118586,123.683955 62.4343397,111.177919 56.9048423,83.8023739 C52.9153112,64.0360608 53.3546247,51.6902243 58.5221329,46.2856745 C63.4910688,41.0888057 68.5997497,37.8598427 73.828069,36.6462905 C75.9265911,36.1966072 77.3359435,36.0374867 78.3531525,36.1900681 C79.4801423,36.3591165 80.9645149,37.1200134 82.78613,38.4278397 C84.6851868,39.791265 86.458137,41.7415102 88.0387402,44.2254856 C90.3415253,47.7436295 92.1168184,51.4760317 93.3478033,56.1585608 L93.4373927,56.3377413 Z M71.3867982,51.2495285 C74.6289577,50.55478 77.4071631,53.6247604 79.9306186,60.0048177 C82.2673329,65.912737 84.0788097,72.0897604 85.3573449,78.4367742 C86.6251066,84.7303055 87.1117445,91.1697695 86.7982808,97.6181627 C86.4621026,104.581854 85.4110566,108.242394 83.0454858,108.768076 L82.9004199,108.800313 L82.7519834,108.793244 C80.2681944,108.674969 77.9503278,105.648532 75.3529911,99.6982574 C72.8989492,94.1208896 70.9582101,87.6256368 69.5093695,80.2004682 C65.8903041,61.7337734 66.2320491,52.291369 71.3867982,51.2495285 Z M83.6634664,104.598868 C84.1200702,103.008627 84.4305087,100.63935 84.5815434,97.5107762 C84.8861172,91.2452579 84.4133386,84.9891885 83.1817099,78.8750316 C81.9288262,72.6553588 80.1544465,66.6048343 77.8668447,60.8210864 C75.7095141,55.3667034 73.6070857,53.043472 71.8391547,53.4222373 C68.6822316,54.0603387 68.3651524,62.8222936 71.6873642,79.7740922 C73.1065679,87.0475092 75.0008414,93.3873032 77.3856885,98.807422 C79.5355072,103.732461 81.4089323,106.276087 82.678084,106.552266 C82.9615578,106.374522 83.3301542,105.759714 83.6634664,104.598868 Z"/>
      <path d="M46.140534 156.45179L46.0749831 156.479591 46.1073124 156.464639 46.140534 156.45179zM49.6261839 154.837161C54.8443715 152.425393 59.5743212 149.239473 63.7981852 145.274233 68.0344079 141.256372 70.6308317 137.557793 71.6185896 134.141797 72.6332323 130.632824 72.4192317 127.32091 70.9224792 124.084688 68.6968243 119.262435 65.4258908 116.86442 61.0791023 116.783924 56.3605881 116.696544 52.3297998 117.224642 49.0343449 118.365376L47.1517974 119.017027 47.5887084 117.073386C52.295131 96.136403 52.72144 81.5325873 48.9498154 73.3035883L48.8489075 73.0834256 48.8489075 72.9089466C44.013299 62.6190303 35.0894397 59.7658837 21.5577091 64.3471409 17.9067187 65.6061031 14.156952 67.7227336 10.2388459 70.7058371 6.78322866 73.3368184 4.23924336 75.9584805 2.59200029 78.5053089 8.1269213 92.6360708 13.5229189 105.392172 19.315325 117.82172L28.8604155 138.155005C32.4692955 145.926127 34.8385968 150.97332 36.4934217 154.402283 37.3861981 156.252205 38.0672722 157.622366 38.5544518 158.547536 38.6967797 158.817821 38.8220094 159.049036 38.9296475 159.240531L46.1073124 156.464639 49.6261839 154.837161zM50.1638158 115.703638C53.3299272 114.864436 56.9905554 114.488492 61.1201941 114.564967 66.368182 114.662152 70.3730432 117.598231 72.9371784 123.153858 74.6617533 126.882669 74.9112704 130.744244 73.750586 134.758278 72.6365525 138.610977 69.8231758 142.618603 65.3213111 146.888393 60.9195287 151.020678 55.9910023 154.340353 50.5575502 156.851612L47.0066109 158.493921 46.9410599 158.521722 38.42715 161.814394 37.9754296 161.568001C37.1554374 161.120733 35.119581 156.902234 26.849483 139.093934L17.305017 118.761991C11.4189049 106.131376 5.94388654 93.1727524.321617628 78.7936752L.121924964 78.2829568.40631678 77.8140947C2.19433221 74.8662854 5.02268705 71.8878546 8.89443638 68.9400455 12.9892859 65.822376 16.942006 63.5911844 20.840121 62.2470253 35.4763588 57.29181 45.6404895 60.6131134 50.9668228 72.2002245L51.0682446 72.4208614 51.0682446 72.6024542C54.8741596 81.1652169 54.5425572 95.4896245 50.1638158 115.703638zM34.6290649 78.4069634C39.7190874 89.2687077 40.6115534 102.215114 37.3272978 117.286698L36.566051 120.780091 19.4265539 78.7638383 19.8598933 78.2506732C21.6299997 76.1544946 23.5192979 74.7230915 25.4942833 74.0139933 29.5114435 72.6211604 32.6655925 74.1779292 34.6290649 78.4069634zM21.9938737 79.1816415L35.8715389 113.201746C38.1744203 100.128171 37.0809119 88.8691594 32.6177758 79.3451306 31.1332476 76.1476851 29.1659871 75.1399563 26.3481453 76.0658125 24.8894414 76.5644778 23.4244606 77.6057624 21.9938737 79.1816415zM57.8086011 136.43355C57.6144399 138.229541 57.1205788 139.77444 56.3591423 140.941597 55.6205679 142.123316 54.554624 143.201373 53.159289 144.211449 51.7883421 145.251477 50.6813605 145.925292 49.7952552 146.238035L48.8397271 146.575281 39.8997751 127.083254 40.6876281 126.558019C41.6279144 125.931161 42.6587946 125.433913 43.7377846 125.056279 46.6061455 124.067189 49.2108324 124.140907 51.6815929 125.326872 54.1264895 126.500422 55.6544502 128.222476 56.6981382 130.458951L57.2573737 131.96438C57.7728964 133.543251 57.9599385 135.033679 57.8086011 136.43355zM50.7212168 127.327655C48.7996552 126.405306 46.7978811 126.348652 44.4661056 127.1527 43.8625165 127.363956 43.2776311 127.619384 42.7248764 127.919346L49.9652568 143.705749C50.4839974 143.405713 51.1098081 142.980674 51.8377889 142.428618 53.0356817 141.561179 53.9029719 140.684033 54.4886752 139.747298 55.0551638 138.878682 55.4432328 137.664722 55.6021205 136.195011 55.7569084 134.763223 55.4392027 133.134981 54.6260511 131.30539L53.9139609 129.894714C53.1170548 128.8433 52.1293971 128.003582 50.7212168 127.327655zM138.271782 16.2799459C138.578502 18.0435852 139.432556 19.2890812 140.969305 20.1672236 142.564118 21.0785453 145.021066 21.2891408 148.410071 20.7452263 151.663017 20.2231486 153.873511 18.8673786 155.128135 16.710994 156.433103 14.4680808 156.94821 12.3167521 156.675021 10.3654004 156.398085 8.38728851 155.585568 6.82996545 154.255444 5.72766138 152.994403 4.64676853 150.967713 4.29305378 148.090009 4.73889526L148.08464 4.71673866C140.329966 5.97987951 137.228615 9.69918003 138.271782 16.2799459zM155.685595 4.03066951C157.446122 5.48939201 158.522074 7.55163281 158.872923 10.0576941 159.219995 12.5367784 158.587511 15.1783262 157.046416 17.8270843 155.434054 20.5983307 152.635428 22.314821 148.761761 22.9365208 144.918907 23.5532751 141.980991 23.3014537 139.868206 22.0941478 137.749454 20.8834322 136.503816 19.0668772 136.082543 16.6438309 134.826107 8.71862344 138.875806 3.9235809 147.880208 2.50183321L147.885896 2.5251562C151.278764 2.02220713 153.893806 2.49464922 155.685595 4.03066951zM155.641569 26.7305997L144.16606 29.2268955 155.278819 98.6494575 165.120678 94.8078394 155.641569 26.7305997zM153.52234 101.717488L141.642766 27.5045536 157.50949 24.0530261 167.560547 96.23789 153.52234 101.717488zM183.813173 100.854214C190.752553 100.197231 193.709271 96.9247464 193.065988 90.6520143 192.917549 89.0191859 192.23968 87.7972365 190.983698 86.8737208 189.713897 85.9400432 187.561894 85.5579118 184.646555 85.8413475 181.773621 86.1206606 179.78742 87.2337006 178.607468 89.1749118 177.349369 91.2446868 176.784082 93.2433814 176.902496 95.0985516 177.020697 96.9897674 177.636334 98.5096201 178.710206 99.6207522 179.539374 100.44992 180.743589 100.919288 182.357951 100.991986L183.813173 100.854214zM187.455426 102.461746L184.200516 103.152386C181.13516 103.444324 178.750718 102.799881 177.127714 101.17665 175.655814 99.6539952 174.837241 97.6331439 174.687574 95.2384568 174.538419 92.9016996 175.228855 90.4605142 176.710996 88.0221542 178.277289 85.4453486 180.899616 83.9758321 184.431799 83.6324254 187.841728 83.3009046 190.517189 83.7759865 192.298413 85.0857097 194.071126 86.3891757 195.070763 88.1911518 195.274977 90.4383314 195.930745 96.8320691 193.219778 100.911426 187.422375 102.470602L187.455426 102.461746zM179.435218 77.5815582L188.459529 76.7579108 186.309249 3.34735198 174.001644 5.82388231 179.435218 77.5815582zM188.450607.652648016L190.739001 78.7784253 177.392395 79.996568 171.64051 4.03516759 188.450607.652648016z"/>
    </g>
    <g transform="translate(6.942 .094)">
      <path d="M140.084557,59.3006869 C141.638093,65.3816705 144.034977,72.5279359 145.677286,81.0501903 C147.319596,89.5724447 148.118557,96.8962571 148.029784,103.110401 C147.985397,109.280158 147.008888,114.1627 145.277806,117.713639 C143.546723,121.264578 141.416159,124.016556 138.886115,125.836413 C136.35607,127.656269 133.382159,128.899098 129.919993,129.653672 C115.716236,132.716358 105.773605,119.444722 99.825782,89.6168315 C95.5646548,68.1336485 96.1416825,54.5956923 101.823185,48.9141893 C107.504688,43.2326864 113.274965,39.6817471 119.045241,38.3057581 C121.175805,37.8175039 122.773727,37.5955702 123.839009,37.7287304 C124.904291,37.8618907 126.41344,38.5720785 128.410844,39.9480675 C130.408247,41.2796698 132.316877,43.3214599 134.136733,46.0290511 C135.95659,48.7366424 138.442247,52.9533828 139.995783,59.0343664 L140.084557,59.3006869 Z M114.473407,85.4888645 C115.982556,93.5672515 118.157506,100.713517 120.909484,106.883274 C123.661462,113.053031 126.102733,116.160103 128.233297,116.20449 C130.09754,115.805009 131.251595,112.032136 131.695463,104.930257 C132.13933,97.7839919 131.651076,90.7708867 130.275087,83.8909418 C128.899098,77.0109968 126.901694,70.2642121 124.282877,63.6505876 C121.619672,57.0369631 118.867694,54.1074381 115.938169,54.7288525 C111.188788,55.6609741 110.656147,65.8699247 114.473407,85.4888645 Z M90.7265,54.0186646 C92.1468757,59.5226206 94.2774393,65.9143114 95.7422018,73.5932177 C97.251351,81.272124 98.0059256,87.8857485 98.0059256,93.3897045 C98.0059256,98.9380472 97.251351,103.287948 95.7865885,106.483793 C94.3218261,109.679639 92.5019697,112.120909 90.3714061,113.718832 C88.2408425,115.316755 85.6664114,116.426423 82.648113,117.092225 C70.441759,119.711042 61.7419577,107.682235 56.3267752,80.8726433 C52.4207419,61.520024 52.8202226,49.4024435 57.6583774,44.3423549 C62.4965323,39.2822664 67.4234606,36.1751945 72.3947757,35.0211392 C74.2590188,34.6216585 75.6350078,34.4441115 76.5227427,34.5772718 C77.4104775,34.710432 78.7420797,35.3762331 80.4731627,36.6190619 C82.2042456,37.8618907 83.8909418,39.6817471 85.4444777,42.1230179 C87.0424004,44.5642886 89.2173508,48.3815484 90.6377265,53.8411177 L90.7265,54.0186646 Z M68.8882231,77.321704 C70.3085988,84.6011296 72.2172287,91.0372072 74.6584995,96.5855499 C77.0997703,102.178279 79.2303339,104.930257 81.094577,105.019031 C82.6924998,104.663937 83.6690081,101.334931 83.9797153,94.8988537 C84.2904225,88.5071629 83.8021683,82.1598589 82.5593395,75.9901018 C81.3165108,69.8203447 79.5410411,63.6949743 77.1885438,57.7471509 C74.8360465,51.7993275 72.3947757,49.136123 69.9091181,49.6687639 C65.7811512,50.512112 65.4260572,59.6557808 68.8882231,77.321704 Z"/>
      <path d="M48.7366424 65.9586981C52.6426756 74.4809525 52.1988082 89.3061243 47.4494269 110.434213 50.9115927 109.235771 55.0839464 108.70313 59.8777145 108.791904 64.7158694 108.880677 68.3111954 111.543882 70.7080795 116.737131 72.3503889 120.28807 72.5279359 123.883396 71.4626541 127.567496 70.3973723 131.251595 67.6453943 135.113242 63.3398804 139.196822 58.9899797 143.280402 54.1518248 146.520634 48.8698026 148.961905L45.3188633 150.604215 37.284863 153.711286C36.7966089 153.444966 33.2900563 146.076767 26.632045 131.739849L17.0888955 111.410722C10.6972047 97.6952184 5.14886203 84.3348092.133160225 71.5070408 1.77546967 68.7994496 4.43867417 65.9143114 8.34470744 62.9403997 12.2507407 59.966488 16.1123872 57.7471509 19.9740338 56.4155487 34.1334044 51.6217806 43.6765538 54.7732392 48.7366424 65.7811512L48.7366424 65.9586981zM24.7678019 68.1336485C22.9479454 68.7550629 21.1724758 70.0866651 19.4857796 72.0840685L35.0211392 110.167893C38.2613713 95.2983344 37.3736365 82.6037263 32.4023214 71.995295 30.6712385 68.2668087 28.0968075 66.9795932 24.6346416 68.1780352L24.7678019 68.1336485zM54.640079 123.97217C53.7079574 121.974766 52.1988082 120.510004 49.9794711 119.444722 47.760134 118.37944 45.4520235 118.335053 42.8775925 119.222788 41.9898576 119.533495 41.0133493 119.977363 40.0812277 120.598777L48.2040015 138.309087C48.9585761 138.042767 49.9794711 137.421352 51.2666866 136.444844 52.5539021 135.512722 53.5304105 134.536214 54.1962116 133.470932 54.8620127 132.450037 55.3058801 131.074048 55.4834271 129.431739 55.6609741 127.789429 55.5447551 126.032799 54.6570203 124.035395L54.640079 123.97217zM147.186435.976508317C150.337894.488254158 152.690391.887734834 154.243927 2.21933708 155.797463 3.50655259 156.729585 5.326409 157.040292 7.54574609 157.350999 9.76508317 156.773972 12.1619672 155.353596 14.603238 153.93322 17.0445088 151.447563 18.5980448 147.852237 19.1750724 144.25691 19.7521 141.549319 19.5301663 139.685076 18.4648845 137.820833 17.3996027 136.799938 15.8460668 136.444844 13.8042767 135.290789 6.52485103 138.886115 2.26372383 147.319596.932121575L147.186435.976508317zM165.562546 92.8570636L153.622513 97.5176715 142.126347 25.6999234 155.797463 22.7260117 165.562546 92.8570636zM183.095309 100.047716C180.298945 100.314036 178.257155 99.7370086 176.925552 98.4054063 175.638337 97.0738041 174.928149 95.2983344 174.794989 93.1677708 174.661829 91.0815939 175.283243 88.8622568 176.659232 86.598533 178.035221 84.3348092 180.343331 83.0475937 183.539177 82.7368865 186.735022 82.4261793 189.131906 82.8700467 190.641056 83.9797153 192.150205 85.0893838 192.993553 86.598533 193.1711 88.5515497 193.881288 95.4758814 190.419122 99.2487544 182.917762 99.9589423L183.095309 100.047716zM171.821077 2.92952495L186.379928 0 188.599265 75.768168 177.413806 76.7890631 171.821077 2.92952495z"/>
    </g>
  </g>
</svg>