<?xml version="1.0" encoding="utf-8"?>
<!-- Generator: Adobe Illustrator 24.1.0, SVG Export Plug-In . SVG Version: 6.00 Build 0)  -->
<svg version="1.1" id="Layer_1" xmlns="http://www.w3.org/2000/svg" xmlns:xlink="http://www.w3.org/1999/xlink" x="0px" y="0px"
     viewBox="0 0 872.71 355" style="enable-background:new 0 0 872.71 355;" xml:space="preserve">
<style type="text/css">
	.st0{fill:none}
	.st1{fill:#111237;}
	.st2{fill:#E91E63;}
	.st3{fill:url(#SVGID_1_);}
	.st4{fill:url(#SVGID_2_);}
	.st5{fill:url(#SVGID_3_);}
	.st6{opacity:0.5;fill:#AC1E54;enable-background:new    ;}
	.st7{fill:#E3F2FD;}
	.st8{fill:#CFDFEC;}
	.st9{opacity:0.5;fill:#0072BB;enable-background:new    ;}
</style>
    <rect class="st0" width="872.71" height="355"/>
    <g>
	<polygon class="st1" points="407.28,136.17 406.03,142.79 429.51,142.79 426.83,156.28 403.25,156.28 401.83,163.55 429.67,163.55
		426.83,177.71 380.53,177.71 391.64,122.15 438,122.15 435.16,136.17 	"/>
        <polygon class="st1" points="514.42,122.19 503.45,177.74 486.38,177.74 491.31,152.41 475.67,172.71 467.43,172.71 458.87,152.87
		453.84,177.87 436.78,177.87 447.89,122.32 463.14,122.32 475.14,151.68 498.29,122.19 	"/>
        <polygon class="st1" points="580.43,122.19 569.32,177.74 550.9,177.74 558.93,136.7 542,136.7 534,177.74 515.58,177.74
		526.69,122.19 	"/>
        <polygon class="st1" points="592.63,122.19 611.05,122.19 605.1,151.05 629.93,122.19 647.79,122.19 636.68,177.74 618.26,177.74
		624.31,148.91 599.47,177.74 581.52,177.74 	"/>
        <path class="st1" d="M681.15,164.02c2.75,0.05,5.44-0.76,7.7-2.31c2.23-1.55,3.98-3.69,5.06-6.18c1.19-2.67,1.79-5.57,1.75-8.5
		c0.12-1.46-0.09-2.92-0.59-4.29c-0.51-1.37-1.3-2.61-2.34-3.65c-1.03-1.03-2.28-1.83-3.65-2.33s-2.84-0.7-4.29-0.58
		c-2.76-0.06-5.48,0.74-7.77,2.28c-2.19,1.58-3.91,3.71-4.99,6.18c-1.18,2.64-1.78,5.51-1.79,8.4c-0.14,1.46,0.05,2.93,0.54,4.31
		c0.5,1.38,1.3,2.63,2.34,3.67c1.04,1.03,2.3,1.82,3.68,2.31c1.38,0.49,2.86,0.67,4.32,0.52L681.15,164.02z M679.57,179.16
		c-5.14,0.12-10.25-0.95-14.91-3.11c-4.07-1.94-7.51-4.99-9.92-8.8c-2.28-3.92-3.43-8.4-3.31-12.93c-0.1-6.04,1.43-11.99,4.43-17.23
		c2.97-5.03,7.29-9.13,12.47-11.84c5.6-2.85,11.81-4.29,18.09-4.2c5.14-0.08,10.23,1.05,14.85,3.31c4.09,1.87,7.54,4.91,9.92,8.73
		c2.35,3.9,3.56,8.38,3.47,12.93c-0.02,6-1.65,11.88-4.73,17.03c-2.97,5.01-7.29,9.08-12.47,11.74
		C691.94,177.7,685.8,179.2,679.57,179.16z"/>
        <polygon class="st1" points="783.93,122.19 772.75,177.74 754,177.74 758.14,157.24 740.84,157.24 736.71,177.74 717.99,177.74
		729.1,122.19 747.82,122.19 743.85,141.86 761.15,141.86 765.11,122.19 	"/>
        <g>
		<polygon class="st2" points="336.03,218.51 345.19,235.18 334.18,235.18 328.18,222.56 322.76,222.56 320.22,235.18
			310.57,235.18 317.23,201.94 326.87,201.94 324.3,214.84 329.17,214.84 340.87,201.94 351.47,201.94 		"/>
            <path class="st2" d="M411.73,227.7c1.77,0.04,3.52-0.44,5.03-1.37s2.72-2.28,3.48-3.88c0.85-1.77,1.28-3.73,1.24-5.7
			c0.05-0.98-0.1-1.97-0.45-2.89s-0.88-1.76-1.57-2.46c-0.74-0.69-1.62-1.22-2.58-1.56s-1.97-0.49-2.98-0.43
			c-1.78-0.03-3.52,0.45-5.04,1.38c-1.51,0.93-2.73,2.27-3.51,3.87c-0.85,1.77-1.28,3.73-1.24,5.7c-0.05,0.98,0.1,1.96,0.44,2.88
			s0.87,1.76,1.55,2.47c0.76,0.69,1.65,1.22,2.61,1.56C409.68,227.62,410.71,227.76,411.73,227.7z M434.17,201.94l-6.59,33.25h-8.99
			l0.62-3.43c-2.34,2-5.22,3.26-8.27,3.62c-3.06,0.35-6.15-0.21-8.88-1.63c-2.19-1.2-4.01-2.98-5.25-5.15
			c-1.42-2.37-2.19-5.06-2.23-7.82c-0.06-3.45,0.77-6.85,2.4-9.88c1.56-2.84,3.86-5.21,6.66-6.86c2.79-1.7,6-2.58,9.26-2.54
			c2.08-0.21,4.19,0.15,6.09,1.03s3.53,2.26,4.72,3.98l0.89-4.53L434.17,201.94z"/>
            <path class="st2" d="M507.51,218.13c1.51,0.52,2.85,1.46,3.84,2.71c0.93,1.15,1.43,2.6,1.41,4.08c0.04,2.06-0.72,4.05-2.13,5.56
			c-1.76,1.8-3.94,3.14-6.35,3.88c-2.94,1-6.02,1.48-9.13,1.44c-4.79,0.04-9.51-1.14-13.72-3.43l3.19-6.48
			c1.55,0.83,3.2,1.45,4.91,1.85c1.94,0.41,3.92,0.62,5.9,0.62c2.04,0.1,4.08-0.29,5.94-1.13c0.65-0.24,1.2-0.67,1.6-1.23
			s0.62-1.23,0.63-1.92c0-1.92-1.54-2.88-4.63-2.88h-6.86l0.93-6h5.7c1.47,0.08,2.93-0.22,4.25-0.86c0.48-0.23,0.88-0.59,1.17-1.04
			c0.28-0.45,0.44-0.97,0.44-1.5c0-2.06-1.85-3.09-5.52-3.09c-1.56,0.01-3.12,0.21-4.63,0.62c-1.83,0.5-3.62,1.14-5.35,1.92
			l-2.06-7.24c4.1-1.75,8.51-2.67,12.97-2.71c2.44-0.06,4.88,0.3,7.21,1.06c1.91,0.59,3.64,1.67,5.01,3.12
			c1.15,1.29,1.79,2.97,1.79,4.7s-0.64,3.41-1.79,4.7C510.97,216.37,509.35,217.5,507.51,218.13z"/>
            <polygon class="st2" points="566.96,201.94 576.61,201.94 572.45,222.15 592.53,201.94 601.65,201.94 595.03,235.18
			585.36,235.18 589.54,214.91 569.47,235.18 560.48,235.18 		"/>
            <polygon class="st2" points="650.96,201.94 660.54,201.94 657.93,214.91 672.37,214.91 674.98,201.94 684.55,201.94
			677.93,235.18 668.29,235.18 670.76,222.76 656.39,222.76 653.92,235.18 644.27,235.18 		"/>
            <path class="st2" d="M746.73,227.7c1.77,0.03,3.5-0.45,5.01-1.37c1.48-0.95,2.67-2.29,3.43-3.88c0.85-1.77,1.28-3.73,1.24-5.7
			c0.05-0.98-0.09-1.96-0.43-2.88s-0.86-1.76-1.53-2.48c-0.74-0.69-1.62-1.22-2.58-1.56s-1.97-0.49-2.98-0.43
			c-1.78-0.03-3.52,0.45-5.04,1.38c-1.51,0.93-2.73,2.27-3.51,3.87c-0.85,1.77-1.28,3.73-1.24,5.7c-0.05,0.98,0.1,1.96,0.45,2.88
			c0.34,0.92,0.87,1.76,1.54,2.47c0.76,0.69,1.65,1.22,2.61,1.56C744.68,227.62,745.71,227.76,746.73,227.7z M746.11,235.66
			c-3.05,0.06-6.08-0.57-8.85-1.85c-2.4-1.14-4.44-2.94-5.87-5.18c-1.38-2.39-2.08-5.1-2.02-7.86c-0.06-3.42,0.81-6.79,2.53-9.75
			s4.21-5.39,7.21-7.03c3.15-1.73,6.7-2.61,10.29-2.54c3.04-0.07,6.06,0.56,8.82,1.85c2.41,1.14,4.44,2.97,5.83,5.25
			c1.42,2.35,2.15,5.05,2.09,7.79c0.05,3.47-0.85,6.89-2.61,9.88c-1.7,2.91-4.19,5.29-7.17,6.86
			C753.23,234.81,749.7,235.7,746.11,235.66z"/>
	</g>
        <path class="st1" d="M379.55,122.18l-11.11,55.55h-18.42l2.76-14.13c-2.97,0.81-6.04,1.24-9.13,1.26
		c-5.86,0.41-11.69-1.18-16.53-4.5c-1.89-1.58-3.39-3.58-4.37-5.85s-1.42-4.72-1.29-7.18c0.11-1.98,0.38-3.95,0.83-5.89l4.05-19.27
		h18.42l-3.82,18.65c-0.24,1.21-0.37,2.44-0.4,3.67c-0.07,0.78,0.03,1.56,0.28,2.29s0.67,1.41,1.2,1.97
		c1.43,0.97,3.14,1.42,4.86,1.29c3.19,0.08,6.35-0.56,9.26-1.85l5.28-26.02h18.13V122.18z"/>
        <g>
		<g>

				<linearGradient id="SVGID_1_" gradientUnits="userSpaceOnUse" x1="89.4192" y1="149.1005" x2="267.3796" y2="149.1005" gradientTransform="matrix(1 0 0 -1 0 355.89)">
				<stop  offset="0" style="stop-color:#44B5FD"/>
                    <stop  offset="1" style="stop-color:#078FEA"/>
			</linearGradient>
            <path class="st3" d="M177.84,148.71c6.75,0.17,13.51,0.19,20.25,0.54c22.8,1.17,45.34,4.23,67.6,9.34
				c0.66,0.15,1.37,0.27,1.62,1.05c0.28,0.86-0.34,1.34-0.87,1.82c-7.15,6.46-14.24,12.98-21.57,19.23
				c-9.7,8.29-19.67,16.23-29.93,23.82c-16.99,12.58-34.67,24.09-53.02,34.59c-10.21,5.84-20.59,11.34-31.17,16.49
				c-6.18,3.01-12.43,5.88-18.71,8.69c-2.12,0.95-4.05,0.79-5.81-0.72c-1.79-1.53-2.11-3.53-1.46-5.68
				c1.45-4.78,2.96-9.55,4.44-14.32c4.27-13.71,8.54-27.41,12.83-41.11c0.25-0.79,0.1-1.36-0.44-1.96
				c-5.52-6.16-11.04-12.32-16.54-18.5c-4.73-5.31-9.49-10.6-14.13-15.99c-2.96-3.44-1.38-7.72,3.08-8.62
				c5.72-1.16,11.46-2.2,17.22-3.15c9.9-1.63,19.85-2.86,29.84-3.77c5.13-0.47,10.27-0.81,15.42-1.07c5.75-0.29,11.5-0.46,17.25-0.5
				C175.12,148.87,176.48,148.68,177.84,148.71z"/>
		</g>

            <linearGradient id="SVGID_2_" gradientUnits="userSpaceOnUse" x1="201.7789" y1="133.3699" x2="229.4147" y2="94.4286" gradientTransform="matrix(1 0 0 -1 0 355.89)">
			<stop  offset="0" style="stop-color:#FC5C9A"/>
                <stop  offset="1" style="stop-color:#E32D73"/>
		</linearGradient>
            <path class="st4" d="M184.12,246.18c3.32,2.03,7,4.21,9.64,5.57c8.57,4.44,17.29,8.51,25.9,12.88c4.31,2.19,8.14-0.2,8.15-5.05
			c0.01-4.56,0.23-13.08,0.18-15.26c0-11.09,0.11-22.16,0.12-33.24L184.12,246.18z"/>

            <linearGradient id="SVGID_3_" gradientUnits="userSpaceOnUse" x1="201.3077" y1="133.0355" x2="228.9435" y2="94.0942" gradientTransform="matrix(1 0 0 -1 0 355.89)">
			<stop  offset="0" style="stop-color:#FC5C9A"/>
                <stop  offset="1" style="stop-color:#E32D73"/>
		</linearGradient>
            <path class="st5" d="M228.11,207.81c0-0.3,0.04-0.64,0.01-0.89c-2.26,1.75-4.66,3.33-6.82,5c-13.76,10.6-28.31,20.01-43.53,28.36
			c-0.53,0.29-1.08,0.56-1.62,0.84c0,0.04,3.68,2.42,7.98,5.05l43.98-35.1C228.11,209.98,228.11,208.9,228.11,207.81z"/>
            <path class="st6" d="M228.11,207.81c0-0.3,0.04-0.64,0.01-0.89c-2.26,1.75-4.66,3.33-6.82,5c-13.76,10.6-28.31,20.01-43.53,28.36
			c-0.53,0.29-1.08,0.56-1.62,0.84c0,0.04,3.68,2.42,7.98,5.05l43.98-35.1C228.11,209.98,228.11,208.9,228.11,207.81z"/>
            <path class="st7" d="M215.53,141.5c-28.76-2.16-45.55-1.95-74.1-0.05l38.19-50.54c2.3-3.04,6.98-2.66,8.81,0.68
			C199.34,111.45,208.54,125.4,215.53,141.5z"/>
            <path class="st8" d="M179.62,90.91l-38.19,50.54c5.46-0.36,10.48-0.67,15.25-0.9l29.54-51.11
			C184.05,88.33,181.24,88.77,179.62,90.91z"/>
            <path class="st9" d="M122.06,202.45c-4.29,13.7-8.56,27.41-12.83,41.11c-1.49,4.77-3,9.54-4.44,14.32
			c-0.65,2.15-0.33,4.15,1.46,5.68c1.76,1.5,3.69,1.67,5.81,0.72c6.28-2.81,12.53-5.68,18.71-8.69
			c10.57-5.15,20.96-10.65,31.17-16.49c18.35-10.49,36.03-22.01,53.02-34.59c10.25-7.59,20.23-15.54,29.93-23.82
			c7.33-6.26,14.42-12.78,21.57-19.23c0.43-0.39,0.92-0.79,0.93-1.4c-42.67,38.5-67.69,48.34-118.47,74.55l-29.49,13.11l2.74-45.91
			l0,0C122.17,202.02,122.14,202.19,122.06,202.45z"/>
	</g>
</g>
</svg>
