<?xml version="1.0" encoding="utf-8"?>
<!-- Generator: Adobe Illustrator 13.0.0, SVG Export Plug-In . SVG Version: 6.00 Build 14948)  -->
<svg version="1.2" baseProfile="tiny" id="Layer_1" xmlns="http://www.w3.org/2000/svg" xmlns:xlink="http://www.w3.org/1999/xlink"
	 x="0px" y="0px" width="22px" height="20.453px" viewBox="0 0 22 20.453" xml:space="preserve">
<path fill-rule="evenodd" fill="#7DB62E" d="M19.207,0c0.101,0,0.2,0,0.301,0c0.488,0.103,0.949,0.396,1.117,0.859
	c0.246,0.678-0.135,1.477-0.344,2.234c-0.501,1.818-1.063,4.292-1.547,5.758c-0.87-0.247-1.794-0.44-2.621-0.73
	c0.494-1.744,1.13-4.046,1.633-5.973C18.001,1.172,18.183,0.091,19.207,0z"/>
<path fill-rule="evenodd" fill="#7DB62E" d="M17.316,1.117c-0.299,1.939-1.436,3.233-1.762,5.242
	c-0.104,0.645-0.048,1.35-0.301,2.02c-0.101,0-0.2,0-0.301,0c-0.288-3.011,1.354-4.833,1.891-7.305
	C16.946,0.907,17.23,1.016,17.316,1.117z"/>
<path fill-rule="evenodd" fill="#7DB62E" d="M0,7.391c4.669,0.029,9.453-0.057,14.051,0.043c-0.022,0.447-0.098,0.811,0,1.117
	c0.151,0.474,0.608,0.492,0.859,0.816c-4.606,0.2-9.54,0.029-14.223,0.086c0,3.437,0,6.875,0,10.313c0.373,0,0.745,0,1.117,0
	c0.368-0.558,1.705-0.344,2.75-0.344c5.458,0,11.206,0,16.414,0c0-2.053,0-4.455,0-6.574c0-0.717-0.15-1.624,0-2.191
	c0.054-0.203,0.275-0.255,0.344-0.516c0.065-0.247-0.048-0.408,0-0.688c-0.602,0-1.203,0-1.805,0
	c0.214-0.674,0.326-1.45,0.602-2.063c0.63,0,1.261,0,1.891,0c0,4.268,0,8.536,0,12.805c-0.058,0.028-0.08,0.093-0.086,0.172
	c-0.08,0.007-0.144,0.028-0.172,0.086c-7.161,0-14.323,0-21.484,0c-0.028-0.058-0.092-0.079-0.172-0.086
	C0.08,20.288,0.058,20.224,0,20.195C0,15.927,0,11.658,0,7.391z"/>
<path fill-rule="evenodd" fill="#7DB62E" d="M18.563,9.539c-0.429,1.776-0.945,3.466-1.375,5.242
	c-0.91-0.191-1.764-0.441-2.621-0.688c0.416-1.79,0.929-3.482,1.375-5.242C16.829,9.066,17.682,9.317,18.563,9.539z"/>
<path fill-rule="evenodd" fill="#7DB62E" d="M4.34,10.828c0.083,0.104,0.027,0.345,0.043,0.516c0.284,0.16,0.776,0.111,1.031,0.301
	c0,0.301-0.077,0.525-0.172,0.73c-0.389-0.044-1.712-0.473-1.719,0.258c-0.005,0.591,1.43,0.623,1.891,1.203
	c0.643,0.809,0.079,2.028-1.031,2.191c-0.097,0.161,0.016,0.53-0.086,0.688c-0.122,0.067-0.48,0.067-0.602,0
	c-0.095-0.134,0.003-0.462-0.086-0.602c-0.372-0.158-0.937-0.123-1.203-0.387c0.059-0.256,0.086-0.544,0.215-0.73
	c0.502,0.149,1.888,0.52,1.934-0.215c0.051-0.817-1.873-0.628-2.105-1.676c-0.204-0.915,0.38-1.4,1.203-1.676
	c0.066-0.148,0.038-0.392,0.043-0.602C3.829,10.76,4.206,10.76,4.34,10.828z"/>
<path fill-rule="evenodd" fill="#7DB62E" d="M6.961,11.945c0.458,0,0.917,0,1.375,0c0,0.344,0,0.688,0,1.031
	c-0.458,0-0.917,0-1.375,0C6.961,12.633,6.961,12.289,6.961,11.945z"/>
<path fill-rule="evenodd" fill="#7DB62E" d="M12.461,11.945c0,0.344,0,0.688,0,1.031c-0.974,0-1.948,0-2.922,0
	c0-0.344,0-0.688,0-1.031C10.513,11.945,11.487,11.945,12.461,11.945z"/>
<path fill-rule="evenodd" fill="#7DB62E" d="M11.945,14.008c0,0.344,0,0.688,0,1.031c-1.662,0-3.323,0-4.984,0
	c0.028-0.33-0.057-0.773,0.043-1.031C8.651,14.008,10.298,14.008,11.945,14.008z"/>
<path fill-rule="evenodd" fill="#7DB62E" d="M16.371,15.125c0.271,1.656-0.873,1.707-1.633,2.449
	c-0.296,0.29-0.307,0.701-0.773,0.688c0.1-1.189,0.582-2.367,0.859-3.523C15.353,14.855,15.816,15.035,16.371,15.125z"/>
<path fill-rule="evenodd" fill="#7DB62E" d="M0,20.195c0.058,0.028,0.08,0.093,0.086,0.172c0.08,0.007,0.144,0.028,0.172,0.086
	c-0.086,0-0.172,0-0.258,0C0,20.367,0,20.281,0,20.195z"/>
<path fill-rule="evenodd" fill="#7DB62E" d="M22,20.195c0,0.086,0,0.172,0,0.258c-0.086,0-0.172,0-0.258,0
	c0.028-0.058,0.092-0.079,0.172-0.086C21.92,20.288,21.942,20.224,22,20.195z"/>
</svg>
