<?xml version="1.0" encoding="utf-8"?>
<!-- Generator: Adobe Illustrator 13.0.0, SVG Export Plug-In . SVG Version: 6.00 Build 14948)  -->
<svg version="1.2" baseProfile="tiny" id="Layer_1" xmlns="http://www.w3.org/2000/svg" xmlns:xlink="http://www.w3.org/1999/xlink"
	 x="0px" y="0px" width="22px" height="18.133px" viewBox="0 0 22 18.133" xml:space="preserve">
<path fill-rule="evenodd" fill="#7DB62E" d="M0.945,0C0.453,0.094,0.157,0.386,0,0.816C0,0.544,0,0.272,0,0C0.315,0,0.63,0,0.945,0z
	"/>
<path fill-rule="evenodd" fill="#7DB62E" d="M0.945,0c6.704,0,13.406,0,20.109,0C21.548,0.094,21.844,0.386,22,0.816
	c0,4.254,0,8.508,0,12.762c-0.176,0.932-1.357,0.773-2.578,0.773c-2.164,0-4.715,0-6.66,0c-0.1,0.702-0.014,1.59-0.043,2.363
	c1.046,0,2.092,0,3.137,0c0,0.473,0,0.945,0,1.418c-3.236,0-6.474,0-9.711,0c0-0.473,0-0.945,0-1.418c1.031,0,2.063,0,3.094,0
	c0.101-0.688,0.015-1.561,0.043-2.32c-1.871-0.077-4.452-0.043-6.703-0.043c-1.19,0-2.369,0.18-2.579-0.773C0,9.324,0,5.07,0,0.816
	C0.157,0.386,0.453,0.094,0.945,0z M1.375,1.547c0,3.81,0,7.62,0,11.43c6.417,0,12.833,0,19.25,0c0-3.853,0-7.706,0-11.559
	c-6.402,0-12.804,0-19.207,0C1.368,1.425,1.372,1.486,1.375,1.547z"/>
<path fill-rule="evenodd" fill="#7DB62E" d="M21.055,0C21.37,0,21.686,0,22,0c0,0.272,0,0.544,0,0.816
	C21.844,0.386,21.548,0.094,21.055,0z"/>
<path fill-rule="evenodd" fill="#7DB62E" d="M10.786,2.32c0.272,0,0.544,0,0.816,0c0,0.158,0,0.315,0,0.473
	c1.079,0.225,1.79,0.817,2.019,1.891c-0.381,0.148-0.91,0.149-1.375,0.215c-0.104-0.397-0.298-0.705-0.644-0.859
	c0,0.702,0,1.404,0,2.105c0.666,0.297,1.273,0.386,1.718,0.859c1.258,1.334,0.181,4.046-1.718,3.996c0,0.344,0,0.688,0,1.031
	c-0.272,0-0.544,0-0.816,0c0-0.314,0-0.631,0-0.945C9.479,10.832,8.699,10.05,8.508,8.68c0.489-0.027,0.913-0.119,1.418-0.129
	c0.128,0.53,0.402,0.916,0.816,1.16c0.101-0.659,0.015-1.504,0.043-2.234c-1.15-0.344-2.113-1.113-2.063-2.535
	c0.043-1.199,0.849-1.897,2.02-2.105C10.841,2.749,10.758,2.479,10.786,2.32z M10.699,4.039c-0.773,0.232-0.79,1.714,0.086,1.848
	C10.729,5.298,10.898,4.485,10.699,4.039z M11.645,9.84c1.106-0.125,1.123-2.081-0.043-2.148C11.63,8.394,11.545,9.209,11.645,9.84z
	"/>
</svg>
