<?xml version="1.0" encoding="utf-8"?>
<!-- Generator: Adobe Illustrator 13.0.0, SVG Export Plug-In . SVG Version: 6.00 Build 14948)  -->
<svg version="1.2" baseProfile="tiny" id="Layer_1" xmlns="http://www.w3.org/2000/svg" xmlns:xlink="http://www.w3.org/1999/xlink"
	 x="0px" y="0px" width="22px" height="20.178px" viewBox="0 0 22 20.178" xml:space="preserve">
<path fill-rule="evenodd" fill="#7DB62E" d="M22,14.302c0,0.046,0,0.091,0,0.137c-1.156,2.55-7.292,2.455-8.427-0.046
	c1.114-2.316,2.294-4.569,3.462-6.832c-0.159-0.313-0.374-0.871-0.091-1.229c-1.098-0.368-1.953-0.868-3.234-1.139
	c-0.375-0.079-0.914-0.268-1.229-0.228c-1.032,0.131-0.774,2.917-0.774,4.145c0,0.799,0,1.621,0,2.459c0,0.791-0.161,1.893,0,2.414
	c0.082,0.268,0.472,0.481,0.592,0.684c0.159,0.266,0.319,0.658,0.319,1.002c0,0.47-0.337,0.708-0.273,1.094
	c0.117,0.708,1.773,0.781,2.46,1.184c0.389,0.229,0.618,0.52,0.865,0.957c0.699,0.227,1.434,0.418,1.503,1.275
	c-4.114,0-8.229,0-12.344,0c0.052-0.859,0.797-1.025,1.458-1.275c0.355-0.463,0.509-0.728,1.002-1.002
	c0.729-0.406,2.241-0.481,2.369-1.094c0.071-0.341-0.256-0.626-0.273-1.048c-0.015-0.366,0.148-0.807,0.319-1.093
	c0.127-0.213,0.509-0.412,0.592-0.684c0.11-0.356,0-1.153,0-1.821c0-1.809,0.086-3.906,0-5.466
	c-0.036-0.644-0.202-1.538-0.592-1.686C9.195,4.818,7.744,5.351,7.288,5.511C6.459,5.802,5.898,6.009,5.102,6.285
	C5.184,6.534,5.288,7.302,4.919,7.47c1.185,2.276,2.351,4.572,3.507,6.878C7.348,16.931,1.167,16.968,0,14.438
	c0-0.046,0-0.091,0-0.137c1.188-2.243,2.314-4.549,3.507-6.787C3.416,7.21,3.229,6.866,3.371,6.468
	C1.973,6.617,1.531,3.85,2.96,3.962c0.89,0.07,0.286,0.957,0.365,1.595c0.554,0.374,1.191-0.007,1.64-0.228
	C6.468,4.59,7.815,3.646,9.793,3.461C9.892,1.966,10.375,0.854,11.114,0c0.603,0.96,1.165,1.962,1.229,3.461
	c1.986,0.18,3.346,1.084,4.737,1.822c0.449,0.238,1.06,0.606,1.64,0.319c0.277-0.425-0.12-0.813-0.091-1.275
	c0.422-0.664,1.315-0.123,1.366,0.501c0.074,0.915-0.817,1.527-1.412,1.685c0.217,0.286,0.022,0.764-0.137,0.957
	C19.681,9.697,20.795,12.045,22,14.302z M0.911,14.348c2.201,0,4.403,0,6.604,0c-0.676-1.61-1.632-3.369-2.414-5.011
	C4.886,8.884,4.631,7.861,4.19,7.742c-0.014-0.003-0.031,0.004-0.045,0C3.015,9.893,2.017,12.174,0.911,14.348z M14.667,14.348
	c2.186,0,4.372,0,6.559,0c-0.676-1.61-1.632-3.369-2.414-5.011c-0.216-0.453-0.47-1.476-0.911-1.595
	c-0.014-0.003-0.031,0.004-0.045,0C16.752,9.904,15.694,12.111,14.667,14.348z"/>
</svg>
