<svg width="417" height="277" viewBox="0 0 417 277" fill="none" xmlns="http://www.w3.org/2000/svg">
<path fill-rule="evenodd" clip-rule="evenodd" d="M216.881 119.548C216.96 117.89 217 116.222 217 114.545C217 91.1901 209.227 69.6507 196.127 52.3727L199.861 39.55C217.383 59.5946 228 85.83 228 114.545C228 115.831 227.979 117.112 227.936 118.388C224.328 118.348 220.626 118.725 216.881 119.548ZM170.758 200.51C154.484 211.276 134.974 217.545 114 217.545C98.7227 217.545 84.2223 214.219 71.1834 208.251C69.6636 211.55 67.8343 214.744 65.6955 217.835C80.3624 224.706 96.7329 228.545 114 228.545C136.132 228.545 156.79 222.238 174.277 211.324C172.759 207.982 171.57 204.368 170.758 200.51ZM47.2218 192.967C46.5026 196.829 45.1968 200.501 43.3044 203.983C16.9247 183.103 0 150.801 0 114.545C0 51.5846 51.0395 0.545013 114 0.545013C137.027 0.545013 158.46 7.37249 176.384 19.1136L173.388 30.3795C156.605 18.5156 136.116 11.545 114 11.545C57.1147 11.545 11 57.6597 11 114.545C11 145.952 25.0566 174.075 47.2218 192.967Z" fill="url(#paint0_linear)"/>
<path fill-rule="evenodd" clip-rule="evenodd" d="M61.0039 35.9505L59.254 27.1223L59.0622 27.1603L58.8722 27.2066C55.9639 27.9157 52.9412 29.3558 50.5733 32.0225C48.1721 34.7267 47.0988 37.9553 46.8421 41.0556L46.8317 41.1811L46.8248 41.3069L38.8243 187.619L38.8229 187.642C38.3822 194.874 35.4913 201.374 29.619 207.377C27.6824 209.302 25.6801 210.907 23.6166 212.223L23.6019 212.233L23.5871 212.242C20.8118 214.028 17.9887 217.108 17.479 221.681C17.0166 225.83 18.7057 229.288 20.2551 231.577L20.4169 231.816L20.5938 232.044L20.8512 232.376L20.9957 232.562L28.986 243.184L29.247 243.531L29.5401 243.851C31.8761 246.403 35.024 247.953 38.5716 248.155C41.8071 248.339 44.715 247.371 47.011 246.244L47.1085 246.196L47.2048 246.146C56.6485 241.225 64.7548 234.144 71.5472 225.115L71.5636 225.093L71.58 225.071C79.9685 213.777 84.6866 201.095 85.6107 187.205L85.6146 187.147L85.6177 187.089L92.8496 52.0252L109.925 174.004L109.926 174.013C110.674 179.383 113.101 184.928 118.677 188.125C122.433 190.32 126.547 190.677 130.276 190.17L130.585 190.128L130.89 190.065L155.051 185.057C161.192 183.826 165.715 180.121 168.74 175.184C169.771 166.459 172.642 157.937 176.994 150.253L215.332 18.6128L215.34 18.5861C215.988 16.3965 216.486 13.5815 215.898 10.6136C215.282 7.50528 213.558 4.73856 210.848 2.87008C207.076 -0.0613685 202.645 -0.382106 198.971 0.304847L182.688 2.88648C179.579 3.29217 176.376 4.37432 173.619 6.6038C170.753 8.92246 168.998 11.9763 168.108 15.2166L168.099 15.2513L168.089 15.2861L145.897 98.723L136.733 27.9055L136.731 27.894L136.73 27.8826C136.299 24.6163 134.83 19.5501 129.802 16.8742C126.589 15.1268 123.159 14.8931 120.082 15.503L103.012 18.8866L102.936 18.9017L102.86 18.9181C99.9566 19.5458 96.4182 20.8355 93.7339 23.7614C92.3693 25.2488 91.4566 26.8999 90.9159 28.6062C89.3803 26.5592 87.3497 25.1271 85.1696 24.2477L85.1181 24.2269L85.0663 24.2068C82.6059 23.2495 79.9754 23.0149 77.3779 23.5298L63.785 26.2241L60.3867 26.8977L59.5372 27.0661L59.3248 27.1082L59.2717 27.1188L59.2584 27.1214L59.2551 27.1221L59.2543 27.1222L59.2541 27.1223L61.0039 35.9505ZM61.0039 35.9505L79.1279 32.358C80.0411 32.177 80.9328 32.2557 81.803 32.5943C83.8662 33.4265 84.7971 35.1767 84.5959 37.8448L76.6306 186.608C75.8233 198.741 71.7314 209.773 64.3549 219.704C58.2878 227.77 51.1847 233.923 43.0455 238.165C40.0514 239.634 37.7623 239.504 36.1782 237.774L28.1488 227.1L27.7074 226.531C25.7461 223.634 25.9957 221.394 28.4563 219.811C31.1136 218.117 33.6311 216.084 36.0088 213.715C43.2967 206.284 47.2298 197.765 47.808 188.159L55.8114 41.7983C56.0695 38.6808 57.8004 36.7315 61.0039 35.9505ZM118.839 172.766L99.3587 33.6044C98.9004 30.5559 100.702 28.5927 104.762 27.7149L121.832 24.3312C123.237 24.0527 124.473 24.2093 125.539 24.801C126.76 25.4351 127.516 26.855 127.807 29.0605L139.792 121.676L142.84 145.23L148.945 122.277L176.787 17.5995C177.72 14.2023 180.111 12.2682 183.96 11.7973L200.523 9.17118C202.63 8.75344 204.301 9.07933 205.535 10.1488C207.191 11.1348 207.581 13.1018 206.705 16.0497L163.177 165.51C162.768 166.759 162.365 167.861 161.971 168.816C159.955 173.011 157.05 175.485 153.257 176.237L129.063 181.252C126.717 181.571 124.759 181.266 123.187 180.336C120.802 178.984 119.353 176.46 118.839 172.766Z" fill="url(#paint1_linear)"/>
<path fill-rule="evenodd" clip-rule="evenodd" d="M142.84 145.229L167.81 51.3492C156.759 41.9299 143.206 35.3585 128.287 32.7701L142.84 145.229ZM163.177 165.51L188.618 78.1546C193.987 89.1426 197 101.492 197 114.545C197 119.536 196.559 124.424 195.715 129.172C180.421 140.228 170.173 158.307 168.544 177.108C153.957 189.836 134.879 197.545 114 197.545C100.493 197.545 87.7395 194.319 76.4683 188.594C76.5324 187.935 76.5865 187.273 76.6308 186.607L84.5962 37.8446C84.6211 37.5141 84.6286 37.1977 84.6188 36.8953C89.3205 35.1153 94.2261 33.7502 99.2908 32.8444C99.2969 33.0897 99.3196 33.343 99.3589 33.6042L118.839 172.765C119.353 176.46 120.802 178.984 123.187 180.336C124.759 181.266 126.718 181.571 129.064 181.252L153.257 176.237C157.051 175.485 159.955 173.011 161.971 168.815C162.366 167.861 162.768 166.759 163.177 165.51ZM31 114.545C31 134.062 37.7361 152.005 49.0103 166.177L55.0274 56.1392C40.1736 71.1363 31 91.7694 31 114.545Z" fill="url(#paint2_linear)"/>
<g filter="url(#filter0_d)">
<mask id="path-4-outside-1" maskUnits="userSpaceOnUse" x="188.316" y="114.193" width="212" height="143" fill="black">
<rect fill="white" x="188.316" y="114.193" width="212" height="143"/>
<path d="M219.543 178.457C221.978 179.342 224.302 180.173 226.516 180.947C228.729 181.722 230.666 182.663 232.326 183.77C233.986 184.876 235.314 186.204 236.311 187.754C237.307 189.193 237.805 191.019 237.805 193.232C237.805 195.889 237.196 198.379 235.979 200.703C234.872 203.027 233.212 205.075 230.998 206.846C228.785 208.617 226.073 210 222.863 210.996C219.764 212.103 216.278 212.656 212.404 212.656C208.088 212.656 204.602 212.214 201.945 211.328C199.289 210.553 197.242 209.613 195.803 208.506C194.364 207.399 193.423 206.292 192.98 205.186C192.538 204.079 192.316 203.193 192.316 202.529C192.316 201.201 192.593 199.762 193.146 198.213C193.7 196.553 194.751 194.782 196.301 192.9C196.965 192.126 197.684 191.406 198.459 190.742C200.008 189.414 201.558 188.584 203.107 188.252C202.886 190.798 203.163 192.9 203.938 194.561C204.823 196.11 205.93 197.327 207.258 198.213C208.697 199.098 210.246 199.707 211.906 200.039C213.677 200.371 215.337 200.537 216.887 200.537C218.436 200.537 219.986 200.316 221.535 199.873C223.195 199.43 224.689 198.877 226.018 198.213C227.346 197.438 228.397 196.608 229.172 195.723C230.057 194.727 230.5 193.675 230.5 192.568C230.5 191.351 230.002 190.355 229.006 189.58C228.01 188.805 226.737 188.197 225.188 187.754C223.749 187.201 222.144 186.813 220.373 186.592C218.713 186.26 217.108 185.928 215.559 185.596C214.009 185.264 211.906 184.821 209.25 184.268C206.704 183.604 204.159 182.607 201.613 181.279C199.178 179.951 197.02 178.18 195.139 175.967C193.368 173.753 192.482 170.82 192.482 167.168C192.482 162.962 193.534 159.31 195.637 156.211C197.85 153.001 200.507 150.345 203.605 148.242C206.815 146.029 210.191 144.368 213.732 143.262C217.274 142.155 220.428 141.602 223.195 141.602C224.634 141.602 226.184 141.823 227.844 142.266C229.504 142.598 231.053 143.262 232.492 144.258C233.931 145.143 235.093 146.361 235.979 147.91C236.975 149.46 237.473 151.452 237.473 153.887C237.473 156.322 237.251 158.314 236.809 159.863C236.477 161.302 235.923 162.464 235.148 163.35C234.484 164.124 233.654 164.622 232.658 164.844C231.662 165.065 230.5 165.176 229.172 165.176C228.286 165.176 227.456 165.065 226.682 164.844C226.018 164.622 225.298 164.401 224.523 164.18C223.749 163.958 223.029 163.571 222.365 163.018C223.472 161.689 224.302 160.417 224.855 159.199C225.52 157.982 225.852 156.488 225.852 154.717C225.852 153.167 225.409 151.784 224.523 150.566C223.749 149.349 222.421 148.74 220.539 148.74C218.547 148.74 216.61 149.128 214.729 149.902C212.958 150.677 211.353 151.729 209.914 153.057C208.586 154.385 207.479 155.934 206.594 157.705C205.819 159.365 205.432 161.191 205.432 163.184C205.432 166.172 206.538 168.994 208.752 171.65C211.076 174.307 214.673 176.576 219.543 178.457ZM279.807 144.258C282.906 144.258 285.783 145.143 288.439 146.914C291.096 148.685 293.365 151.009 295.246 153.887C297.128 156.764 298.622 160.085 299.729 163.848C300.835 167.5 301.389 171.318 301.389 175.303C301.389 179.287 300.946 183.493 300.061 187.92C299.175 192.347 297.792 196.442 295.91 200.205C294.029 203.968 291.594 207.122 288.605 209.668C285.617 212.103 281.965 213.32 277.648 213.32C274.217 213.32 270.952 212.103 267.854 209.668C264.865 207.122 262.541 203.968 260.881 200.205C260.66 204.079 260.161 208.008 259.387 211.992C258.612 216.087 258.225 220.957 258.225 226.602C258.225 228.262 258.28 230.143 258.391 232.246C258.501 234.349 258.667 236.452 258.889 238.555C259.11 240.658 259.442 242.594 259.885 244.365C260.327 246.136 260.826 247.52 261.379 248.516C259.497 249.622 257.782 250.452 256.232 251.006C254.794 251.559 253.521 251.947 252.414 252.168C251.197 252.5 250.035 252.666 248.928 252.666C247.489 252.666 246.548 252.057 246.105 250.84C245.663 249.622 245.441 247.464 245.441 244.365C245.441 242.373 245.497 239.495 245.607 235.732C245.829 232.08 246.05 227.874 246.271 223.115C246.604 218.356 246.88 213.376 247.102 208.174C247.434 202.861 247.71 197.66 247.932 192.568C248.264 187.477 248.485 182.773 248.596 178.457C248.817 174.03 248.928 170.322 248.928 167.334C248.928 163.682 248.872 160.859 248.762 158.867C248.651 156.764 248.485 155.215 248.264 154.219C248.153 153.112 247.987 152.337 247.766 151.895C247.544 151.452 247.268 150.954 246.936 150.4C247.932 149.626 249.094 148.962 250.422 148.408C251.861 147.744 253.244 147.301 254.572 147.08C256.011 146.748 257.284 146.637 258.391 146.748C259.608 146.859 260.549 147.135 261.213 147.578C261.766 148.132 262.154 148.962 262.375 150.068C262.707 151.175 262.984 152.835 263.205 155.049C265.308 152.171 267.688 149.681 270.344 147.578C273.111 145.365 276.265 144.258 279.807 144.258ZM273.332 203.525C275.324 203.525 277.206 202.585 278.977 200.703C280.858 198.822 282.463 196.442 283.791 193.564C285.23 190.576 286.337 187.311 287.111 183.77C287.997 180.117 288.439 176.52 288.439 172.979C288.439 169.105 288.052 165.951 287.277 163.516C286.613 160.97 285.728 158.978 284.621 157.539C283.625 155.99 282.518 154.938 281.301 154.385C280.194 153.721 279.198 153.389 278.312 153.389C276.21 153.389 274.217 154.274 272.336 156.045C270.454 157.705 268.794 159.919 267.355 162.686C265.917 165.342 264.755 168.33 263.869 171.65C263.094 174.971 262.707 178.291 262.707 181.611C262.707 184.71 262.984 187.588 263.537 190.244C264.201 192.9 265.031 195.225 266.027 197.217C267.023 199.209 268.13 200.758 269.348 201.865C270.676 202.972 272.004 203.525 273.332 203.525ZM312.014 151.23C312.014 150.566 312.899 149.847 314.67 149.072C316.441 148.298 318.378 147.689 320.48 147.246C322.694 146.693 324.686 146.416 326.457 146.416C328.339 146.305 329.279 146.693 329.279 147.578C329.279 149.238 329.169 151.618 328.947 154.717C328.726 157.705 328.449 160.915 328.117 164.346C327.785 167.666 327.453 171.042 327.121 174.473C326.789 177.793 326.568 180.615 326.457 182.939C326.236 185.374 326.014 188.031 325.793 190.908C325.572 193.343 325.406 196.055 325.295 199.043C325.184 202.031 325.184 205.075 325.295 208.174C325.295 208.727 324.742 209.281 323.635 209.834C322.528 210.387 321.311 210.775 319.982 210.996C318.654 211.328 317.382 211.494 316.164 211.494C314.947 211.494 314.283 211.273 314.172 210.83C313.951 210.387 313.729 209.613 313.508 208.506C313.286 207.399 313.065 205.85 312.844 203.857C312.622 201.755 312.456 199.098 312.346 195.889C312.235 192.568 312.29 188.584 312.512 183.936C312.954 174.749 313.01 167.666 312.678 162.686C312.346 157.594 312.124 153.776 312.014 151.23ZM323.635 118.193C325.848 118.193 327.951 118.857 329.943 120.186C331.936 121.514 332.932 123.285 332.932 125.498C332.932 127.158 332.489 128.763 331.604 130.312C330.829 131.862 329.833 133.245 328.615 134.463C327.398 135.68 326.014 136.676 324.465 137.451C322.915 138.115 321.477 138.447 320.148 138.447C318.378 138.447 316.939 138.171 315.832 137.617C314.725 136.953 313.84 136.234 313.176 135.459C312.622 134.574 312.235 133.633 312.014 132.637C311.792 131.641 311.682 130.7 311.682 129.814C311.682 128.708 311.848 127.49 312.18 126.162C312.512 124.723 313.12 123.451 314.006 122.344C314.891 121.126 316.109 120.13 317.658 119.355C319.208 118.581 321.2 118.193 323.635 118.193ZM319.484 133.633C320.148 133.633 320.868 133.411 321.643 132.969C322.528 132.415 323.303 131.807 323.967 131.143C324.742 130.479 325.35 129.759 325.793 128.984C326.346 128.21 326.623 127.546 326.623 126.992C326.623 126.107 326.18 125.664 325.295 125.664C324.742 125.664 324.022 125.885 323.137 126.328C322.362 126.771 321.587 127.324 320.812 127.988C320.038 128.542 319.374 129.206 318.82 129.98C318.378 130.645 318.156 131.309 318.156 131.973C318.156 133.079 318.599 133.633 319.484 133.633ZM358 205.518C357.889 206.182 357.281 206.901 356.174 207.676C355.178 208.34 353.96 208.949 352.521 209.502C351.193 210.055 349.921 210.387 348.703 210.498C347.486 210.719 346.656 210.609 346.213 210.166C345.77 209.723 345.051 208.893 344.055 207.676C343.059 206.458 342.45 204.466 342.229 201.699C342.007 198.822 341.896 195.225 341.896 190.908C341.896 186.481 341.841 181.611 341.73 176.299V169.658C341.73 167.666 341.675 165.342 341.564 162.686C341.564 160.029 341.509 157.262 341.398 154.385C342.395 153.831 343.391 153.333 344.387 152.891C345.493 152.337 346.49 151.895 347.375 151.562C348.371 151.12 349.312 150.788 350.197 150.566C352.521 149.902 354.292 149.515 355.51 149.404C356.727 149.294 357.447 149.681 357.668 150.566C357.779 151.23 357.723 152.835 357.502 155.381C357.281 157.594 357.004 160.97 356.672 165.508C356.34 169.935 355.786 176.133 355.012 184.102C356.451 180.56 357.613 177.516 358.498 174.971C359.494 172.425 360.324 170.378 360.988 168.828C361.652 166.947 362.261 165.452 362.814 164.346C363.368 162.907 364.087 161.302 364.973 159.531C365.858 157.76 366.743 156.1 367.629 154.551C368.625 153.001 369.51 151.618 370.285 150.4C371.171 149.183 371.835 148.464 372.277 148.242C372.609 148.021 373.605 148.021 375.266 148.242C376.926 148.464 378.697 149.017 380.578 149.902C382.46 150.677 384.286 151.839 386.057 153.389C387.827 154.827 388.99 156.598 389.543 158.701C390.207 161.136 390.428 164.346 390.207 168.33C390.096 172.314 389.82 176.41 389.377 180.615C389.045 184.821 388.768 188.805 388.547 192.568C388.326 196.331 388.547 199.209 389.211 201.201C389.432 202.308 389.764 203.304 390.207 204.189C390.428 205.075 390.705 205.905 391.037 206.68C391.48 207.344 391.923 207.842 392.365 208.174C389.709 209.391 387.551 210.277 385.891 210.83C384.23 211.383 382.958 211.771 382.072 211.992C380.965 212.324 380.191 212.435 379.748 212.324C378.752 211.992 377.867 211.162 377.092 209.834C376.428 208.506 375.819 206.403 375.266 203.525C375.044 202.64 374.934 201.201 374.934 199.209C375.044 197.106 375.21 194.782 375.432 192.236C375.653 189.58 375.874 186.868 376.096 184.102C376.428 181.224 376.649 178.568 376.76 176.133C376.981 173.587 377.147 171.429 377.258 169.658C377.368 167.777 377.368 166.504 377.258 165.84C376.704 163.848 375.93 162.464 374.934 161.689C373.938 160.804 373.163 160.693 372.609 161.357C371.171 163.018 369.621 165.729 367.961 169.492C366.411 173.145 364.917 177.184 363.479 181.611C362.04 185.928 360.822 190.244 359.826 194.561C358.83 198.877 358.221 202.529 358 205.518Z"/>
</mask>
<path d="M219.543 178.457C221.978 179.342 224.302 180.173 226.516 180.947C228.729 181.722 230.666 182.663 232.326 183.77C233.986 184.876 235.314 186.204 236.311 187.754C237.307 189.193 237.805 191.019 237.805 193.232C237.805 195.889 237.196 198.379 235.979 200.703C234.872 203.027 233.212 205.075 230.998 206.846C228.785 208.617 226.073 210 222.863 210.996C219.764 212.103 216.278 212.656 212.404 212.656C208.088 212.656 204.602 212.214 201.945 211.328C199.289 210.553 197.242 209.613 195.803 208.506C194.364 207.399 193.423 206.292 192.98 205.186C192.538 204.079 192.316 203.193 192.316 202.529C192.316 201.201 192.593 199.762 193.146 198.213C193.7 196.553 194.751 194.782 196.301 192.9C196.965 192.126 197.684 191.406 198.459 190.742C200.008 189.414 201.558 188.584 203.107 188.252C202.886 190.798 203.163 192.9 203.938 194.561C204.823 196.11 205.93 197.327 207.258 198.213C208.697 199.098 210.246 199.707 211.906 200.039C213.677 200.371 215.337 200.537 216.887 200.537C218.436 200.537 219.986 200.316 221.535 199.873C223.195 199.43 224.689 198.877 226.018 198.213C227.346 197.438 228.397 196.608 229.172 195.723C230.057 194.727 230.5 193.675 230.5 192.568C230.5 191.351 230.002 190.355 229.006 189.58C228.01 188.805 226.737 188.197 225.188 187.754C223.749 187.201 222.144 186.813 220.373 186.592C218.713 186.26 217.108 185.928 215.559 185.596C214.009 185.264 211.906 184.821 209.25 184.268C206.704 183.604 204.159 182.607 201.613 181.279C199.178 179.951 197.02 178.18 195.139 175.967C193.368 173.753 192.482 170.82 192.482 167.168C192.482 162.962 193.534 159.31 195.637 156.211C197.85 153.001 200.507 150.345 203.605 148.242C206.815 146.029 210.191 144.368 213.732 143.262C217.274 142.155 220.428 141.602 223.195 141.602C224.634 141.602 226.184 141.823 227.844 142.266C229.504 142.598 231.053 143.262 232.492 144.258C233.931 145.143 235.093 146.361 235.979 147.91C236.975 149.46 237.473 151.452 237.473 153.887C237.473 156.322 237.251 158.314 236.809 159.863C236.477 161.302 235.923 162.464 235.148 163.35C234.484 164.124 233.654 164.622 232.658 164.844C231.662 165.065 230.5 165.176 229.172 165.176C228.286 165.176 227.456 165.065 226.682 164.844C226.018 164.622 225.298 164.401 224.523 164.18C223.749 163.958 223.029 163.571 222.365 163.018C223.472 161.689 224.302 160.417 224.855 159.199C225.52 157.982 225.852 156.488 225.852 154.717C225.852 153.167 225.409 151.784 224.523 150.566C223.749 149.349 222.421 148.74 220.539 148.74C218.547 148.74 216.61 149.128 214.729 149.902C212.958 150.677 211.353 151.729 209.914 153.057C208.586 154.385 207.479 155.934 206.594 157.705C205.819 159.365 205.432 161.191 205.432 163.184C205.432 166.172 206.538 168.994 208.752 171.65C211.076 174.307 214.673 176.576 219.543 178.457ZM279.807 144.258C282.906 144.258 285.783 145.143 288.439 146.914C291.096 148.685 293.365 151.009 295.246 153.887C297.128 156.764 298.622 160.085 299.729 163.848C300.835 167.5 301.389 171.318 301.389 175.303C301.389 179.287 300.946 183.493 300.061 187.92C299.175 192.347 297.792 196.442 295.91 200.205C294.029 203.968 291.594 207.122 288.605 209.668C285.617 212.103 281.965 213.32 277.648 213.32C274.217 213.32 270.952 212.103 267.854 209.668C264.865 207.122 262.541 203.968 260.881 200.205C260.66 204.079 260.161 208.008 259.387 211.992C258.612 216.087 258.225 220.957 258.225 226.602C258.225 228.262 258.28 230.143 258.391 232.246C258.501 234.349 258.667 236.452 258.889 238.555C259.11 240.658 259.442 242.594 259.885 244.365C260.327 246.136 260.826 247.52 261.379 248.516C259.497 249.622 257.782 250.452 256.232 251.006C254.794 251.559 253.521 251.947 252.414 252.168C251.197 252.5 250.035 252.666 248.928 252.666C247.489 252.666 246.548 252.057 246.105 250.84C245.663 249.622 245.441 247.464 245.441 244.365C245.441 242.373 245.497 239.495 245.607 235.732C245.829 232.08 246.05 227.874 246.271 223.115C246.604 218.356 246.88 213.376 247.102 208.174C247.434 202.861 247.71 197.66 247.932 192.568C248.264 187.477 248.485 182.773 248.596 178.457C248.817 174.03 248.928 170.322 248.928 167.334C248.928 163.682 248.872 160.859 248.762 158.867C248.651 156.764 248.485 155.215 248.264 154.219C248.153 153.112 247.987 152.337 247.766 151.895C247.544 151.452 247.268 150.954 246.936 150.4C247.932 149.626 249.094 148.962 250.422 148.408C251.861 147.744 253.244 147.301 254.572 147.08C256.011 146.748 257.284 146.637 258.391 146.748C259.608 146.859 260.549 147.135 261.213 147.578C261.766 148.132 262.154 148.962 262.375 150.068C262.707 151.175 262.984 152.835 263.205 155.049C265.308 152.171 267.688 149.681 270.344 147.578C273.111 145.365 276.265 144.258 279.807 144.258ZM273.332 203.525C275.324 203.525 277.206 202.585 278.977 200.703C280.858 198.822 282.463 196.442 283.791 193.564C285.23 190.576 286.337 187.311 287.111 183.77C287.997 180.117 288.439 176.52 288.439 172.979C288.439 169.105 288.052 165.951 287.277 163.516C286.613 160.97 285.728 158.978 284.621 157.539C283.625 155.99 282.518 154.938 281.301 154.385C280.194 153.721 279.198 153.389 278.312 153.389C276.21 153.389 274.217 154.274 272.336 156.045C270.454 157.705 268.794 159.919 267.355 162.686C265.917 165.342 264.755 168.33 263.869 171.65C263.094 174.971 262.707 178.291 262.707 181.611C262.707 184.71 262.984 187.588 263.537 190.244C264.201 192.9 265.031 195.225 266.027 197.217C267.023 199.209 268.13 200.758 269.348 201.865C270.676 202.972 272.004 203.525 273.332 203.525ZM312.014 151.23C312.014 150.566 312.899 149.847 314.67 149.072C316.441 148.298 318.378 147.689 320.48 147.246C322.694 146.693 324.686 146.416 326.457 146.416C328.339 146.305 329.279 146.693 329.279 147.578C329.279 149.238 329.169 151.618 328.947 154.717C328.726 157.705 328.449 160.915 328.117 164.346C327.785 167.666 327.453 171.042 327.121 174.473C326.789 177.793 326.568 180.615 326.457 182.939C326.236 185.374 326.014 188.031 325.793 190.908C325.572 193.343 325.406 196.055 325.295 199.043C325.184 202.031 325.184 205.075 325.295 208.174C325.295 208.727 324.742 209.281 323.635 209.834C322.528 210.387 321.311 210.775 319.982 210.996C318.654 211.328 317.382 211.494 316.164 211.494C314.947 211.494 314.283 211.273 314.172 210.83C313.951 210.387 313.729 209.613 313.508 208.506C313.286 207.399 313.065 205.85 312.844 203.857C312.622 201.755 312.456 199.098 312.346 195.889C312.235 192.568 312.29 188.584 312.512 183.936C312.954 174.749 313.01 167.666 312.678 162.686C312.346 157.594 312.124 153.776 312.014 151.23ZM323.635 118.193C325.848 118.193 327.951 118.857 329.943 120.186C331.936 121.514 332.932 123.285 332.932 125.498C332.932 127.158 332.489 128.763 331.604 130.312C330.829 131.862 329.833 133.245 328.615 134.463C327.398 135.68 326.014 136.676 324.465 137.451C322.915 138.115 321.477 138.447 320.148 138.447C318.378 138.447 316.939 138.171 315.832 137.617C314.725 136.953 313.84 136.234 313.176 135.459C312.622 134.574 312.235 133.633 312.014 132.637C311.792 131.641 311.682 130.7 311.682 129.814C311.682 128.708 311.848 127.49 312.18 126.162C312.512 124.723 313.12 123.451 314.006 122.344C314.891 121.126 316.109 120.13 317.658 119.355C319.208 118.581 321.2 118.193 323.635 118.193ZM319.484 133.633C320.148 133.633 320.868 133.411 321.643 132.969C322.528 132.415 323.303 131.807 323.967 131.143C324.742 130.479 325.35 129.759 325.793 128.984C326.346 128.21 326.623 127.546 326.623 126.992C326.623 126.107 326.18 125.664 325.295 125.664C324.742 125.664 324.022 125.885 323.137 126.328C322.362 126.771 321.587 127.324 320.812 127.988C320.038 128.542 319.374 129.206 318.82 129.98C318.378 130.645 318.156 131.309 318.156 131.973C318.156 133.079 318.599 133.633 319.484 133.633ZM358 205.518C357.889 206.182 357.281 206.901 356.174 207.676C355.178 208.34 353.96 208.949 352.521 209.502C351.193 210.055 349.921 210.387 348.703 210.498C347.486 210.719 346.656 210.609 346.213 210.166C345.77 209.723 345.051 208.893 344.055 207.676C343.059 206.458 342.45 204.466 342.229 201.699C342.007 198.822 341.896 195.225 341.896 190.908C341.896 186.481 341.841 181.611 341.73 176.299V169.658C341.73 167.666 341.675 165.342 341.564 162.686C341.564 160.029 341.509 157.262 341.398 154.385C342.395 153.831 343.391 153.333 344.387 152.891C345.493 152.337 346.49 151.895 347.375 151.562C348.371 151.12 349.312 150.788 350.197 150.566C352.521 149.902 354.292 149.515 355.51 149.404C356.727 149.294 357.447 149.681 357.668 150.566C357.779 151.23 357.723 152.835 357.502 155.381C357.281 157.594 357.004 160.97 356.672 165.508C356.34 169.935 355.786 176.133 355.012 184.102C356.451 180.56 357.613 177.516 358.498 174.971C359.494 172.425 360.324 170.378 360.988 168.828C361.652 166.947 362.261 165.452 362.814 164.346C363.368 162.907 364.087 161.302 364.973 159.531C365.858 157.76 366.743 156.1 367.629 154.551C368.625 153.001 369.51 151.618 370.285 150.4C371.171 149.183 371.835 148.464 372.277 148.242C372.609 148.021 373.605 148.021 375.266 148.242C376.926 148.464 378.697 149.017 380.578 149.902C382.46 150.677 384.286 151.839 386.057 153.389C387.827 154.827 388.99 156.598 389.543 158.701C390.207 161.136 390.428 164.346 390.207 168.33C390.096 172.314 389.82 176.41 389.377 180.615C389.045 184.821 388.768 188.805 388.547 192.568C388.326 196.331 388.547 199.209 389.211 201.201C389.432 202.308 389.764 203.304 390.207 204.189C390.428 205.075 390.705 205.905 391.037 206.68C391.48 207.344 391.923 207.842 392.365 208.174C389.709 209.391 387.551 210.277 385.891 210.83C384.23 211.383 382.958 211.771 382.072 211.992C380.965 212.324 380.191 212.435 379.748 212.324C378.752 211.992 377.867 211.162 377.092 209.834C376.428 208.506 375.819 206.403 375.266 203.525C375.044 202.64 374.934 201.201 374.934 199.209C375.044 197.106 375.21 194.782 375.432 192.236C375.653 189.58 375.874 186.868 376.096 184.102C376.428 181.224 376.649 178.568 376.76 176.133C376.981 173.587 377.147 171.429 377.258 169.658C377.368 167.777 377.368 166.504 377.258 165.84C376.704 163.848 375.93 162.464 374.934 161.689C373.938 160.804 373.163 160.693 372.609 161.357C371.171 163.018 369.621 165.729 367.961 169.492C366.411 173.145 364.917 177.184 363.479 181.611C362.04 185.928 360.822 190.244 359.826 194.561C358.83 198.877 358.221 202.529 358 205.518Z" stroke="#AD00FF" stroke-width="8" mask="url(#path-4-outside-1)"/>
</g>
<defs>
<filter id="filter0_d" x="172.316" y="102.193" width="243.828" height="174.473" filterUnits="userSpaceOnUse" color-interpolation-filters="sRGB">
<feFlood flood-opacity="0" result="BackgroundImageFix"/>
<feColorMatrix in="SourceAlpha" type="matrix" values="0 0 0 0 0 0 0 0 0 0 0 0 0 0 0 0 0 0 127 0"/>
<feOffset dy="4"/>
<feGaussianBlur stdDeviation="8"/>
<feColorMatrix type="matrix" values="0 0 0 0 0.0799999 0 0 0 0 0 0 0 0 0 1 0 0 0 0.78 0"/>
<feBlend mode="normal" in2="BackgroundImageFix" result="effect1_dropShadow"/>
<feBlend mode="normal" in="SourceGraphic" in2="effect1_dropShadow" result="shape"/>
</filter>
<linearGradient id="paint0_linear" x1="114" y1="0.545013" x2="114" y2="228.545" gradientUnits="userSpaceOnUse">
<stop stop-color="#FFDC1A"/>
<stop offset="1" stop-color="#FF273F"/>
</linearGradient>
<linearGradient id="paint1_linear" x1="101.5" y1="4.5" x2="117" y2="263" gradientUnits="userSpaceOnUse">
<stop offset="0.101359" stop-color="#FFDC1A"/>
<stop offset="0.433508" stop-color="#FF6033"/>
<stop offset="0.709825" stop-color="#FF273F"/>
</linearGradient>
<linearGradient id="paint2_linear" x1="114" y1="32.7701" x2="146.5" y2="261.5" gradientUnits="userSpaceOnUse">
<stop stop-color="#FFDC1A"/>
<stop offset="0.55861" stop-color="#FF273F"/>
</linearGradient>
</defs>
</svg>