<?xml version="1.0" encoding="utf-8"?>
<!-- Generator: Adobe Illustrator 16.0.0, SVG Export Plug-In . SVG Version: 6.00 Build 0)  -->
<svg version="1.2" baseProfile="tiny" id="Слой_1"
	 xmlns="http://www.w3.org/2000/svg" xmlns:xlink="http://www.w3.org/1999/xlink" x="0px" y="0px" width="120px" height="19px"
	 viewBox="0 0 120 19" xml:space="preserve">
<g>
	<path fill-rule="evenodd" fill="#F7B316" d="M25.866,9.376c0.068,5.324-4.163,9.451-9.182,9.558c-5.332,0.115-9.575-4.155-9.62-9.3
		c-0.048-5.177,4.127-9.527,9.495-9.48C21.645,0.197,25.759,4.265,25.866,9.376z M17.648,5.865c0.016-0.01,0.031-0.022,0.045-0.031
		c0.223,0.195,0.451,0.385,0.664,0.587c0.199,0.194,0.357,0.42,0.421,0.697c0.018,0.079,0.068,0.101,0.145,0.101
		c0.246-0.004,0.49-0.002,0.736-0.002c0.46,0,0.922-0.002,1.382,0.002c0.109,0,0.153-0.033,0.134-0.146
		c-0.014-0.095-0.011-0.19-0.025-0.287c-0.127-0.824-0.548-1.473-1.193-1.986c-0.64-0.507-1.377-0.802-2.165-0.977
		c-0.103-0.024-0.159-0.065-0.156-0.185c0.009-0.337-0.001-0.674,0.005-1.012c0.002-0.122-0.029-0.172-0.159-0.171
		c-0.684,0.006-1.37,0.006-2.054,0.001c-0.103-0.001-0.138,0.032-0.137,0.138c0.005,0.274,0.001,0.552,0,0.827
		c0,0.299,0,0.299-0.289,0.355c-0.009,0.001-0.018,0.007-0.026,0.008c-0.582,0.129-1.12,0.361-1.636,0.653
		c-1.319,0.75-1.671,2.147-1.291,3.368c0.276,0.883,0.869,1.521,1.755,1.838c0.44,0.16,0.89,0.288,1.335,0.425
		c0.107,0.033,0.156,0.076,0.156,0.199c-0.006,0.914-0.004,1.83-0.004,2.747c0,0.051-0.01,0.105-0.018,0.169
		c-0.044-0.018-0.068-0.027-0.089-0.04c-0.482-0.264-0.771-0.686-0.958-1.189c-0.029-0.074-0.069-0.1-0.143-0.097
		c-0.721,0-1.439,0.001-2.159-0.003c-0.094,0-0.127,0.037-0.105,0.129c0.054,0.215,0.097,0.436,0.164,0.647
		c0.273,0.879,0.787,1.584,1.566,2.081c0.486,0.311,1.021,0.496,1.588,0.59c0.114,0.021,0.162,0.063,0.158,0.188
		c-0.01,0.322-0.004,0.639-0.004,0.958c0,0.165,0.004,0.169,0.17,0.169c0.672,0,1.344-0.004,2.015,0.003
		c0.126,0,0.168-0.038,0.166-0.165c-0.008-0.324-0.003-0.646-0.003-0.972c0-0.066,0.005-0.117,0.093-0.13
		c0.198-0.028,0.397-0.062,0.593-0.104c0.681-0.155,1.305-0.427,1.815-0.915c0.504-0.483,0.829-1.065,0.972-1.75
		c0.078-0.38,0.083-0.755,0.045-1.139c-0.093-1.003-0.572-1.774-1.408-2.325c-0.591-0.394-1.267-0.581-1.94-0.773
		c-0.117-0.033-0.175-0.075-0.174-0.21c0.007-0.718,0.003-1.438,0.003-2.157C17.64,5.942,17.645,5.905,17.648,5.865z"/>
	<path fill-rule="evenodd" fill="#F7B316" d="M11.246,0.317c-3.408,2.118-5.34,5.154-5.345,9.217
		c-0.006,4.063,1.92,7.104,5.359,9.254c-1.049-0.187-2.021-0.541-2.934-1.055c-0.917-0.518-1.727-1.166-2.424-1.955
		c-2.601-2.94-2.997-6.976-1.494-10.188C6.03,2.124,9.166,0.626,11.246,0.317z"/>
	<path fill-rule="evenodd" fill="#F7B316" d="M7.719,0.299C4.312,2.445,2.376,5.478,2.376,9.544c0,4.059,1.924,7.094,5.364,9.246
		c-1.102-0.201-2.11-0.575-3.059-1.127c-0.947-0.556-1.773-1.253-2.479-2.091c-2.318-2.758-2.873-6.637-1.347-9.911
		C2.227,2.721,4.563,0.962,7.719,0.299z"/>
	<path fill-rule="evenodd" fill="#F7B316" d="M17.65,13.311c0-0.867,0-1.714,0-2.583c0.105,0.036,0.205,0.064,0.296,0.105
		c0.245,0.107,0.492,0.22,0.656,0.442c0.3,0.405,0.28,0.838,0.046,1.259C18.436,12.923,18.097,13.169,17.65,13.311z"/>
	<path fill-rule="evenodd" fill="#F7B316" d="M15.285,5.703c0.005,0.076,0.008,0.115,0.008,0.153c0,0.56,0,1.121-0.001,1.68
		c0,0.157-0.018,0.173-0.165,0.108c-0.192-0.081-0.404-0.139-0.566-0.26c-0.555-0.426-0.466-1.171,0.167-1.472
		C14.899,5.831,15.081,5.778,15.285,5.703z"/>
</g>
<g>
	<path fill="#474747" d="M28.068,11.266v-1.158l6.217-7.9h-3.959v0.766h-2.163V0.142h9.843v1.178l-6.218,7.896h4.166V8.453h2.163
		v2.813H28.068z"/>
	<path fill="#474747" d="M47.734,9.597h0.938l-0.365-0.826h-5.312l-0.366,0.826h0.922v1.669h-4.42V9.597h0.938l3.467-7.784h-1.05
		V0.142h4.517l4.214,9.455h0.953v1.669h-4.436V9.597z M43.934,6.705H47.4l-1.764-3.941L43.934,6.705z"/>
	<path fill="#474747" d="M53.168,0.142h4.341v1.671h-0.843v7.784h0.843v1.669h-4.341V9.597h0.844V1.813h-0.844V0.142z"/>
	<path fill="#474747" d="M69.576,9.597h0.844V3.83l-3.165,7.436h-1.86L62.214,3.83v5.767h0.843v1.669h-4.341V9.597h0.843V1.813
		h-0.843V0.142h4.389l3.229,7.487l3.195-7.487h4.389v1.671h-0.842v7.784h0.842v1.669h-4.341V9.597z"/>
	<path fill="#474747" d="M75.12,0.142h5.709c1.697,0,3.072,0.514,4.126,1.543c1.057,1.028,1.583,2.367,1.583,4.019
		s-0.526,2.994-1.583,4.02c-1.054,1.028-2.429,1.543-4.126,1.543H75.12V9.597h0.845V1.813H75.12V0.142z M83.022,3.192
		c-0.57-0.656-1.303-0.985-2.193-0.985h-2.21V9.2h2.21c0.891,0,1.623-0.328,2.193-0.985c0.573-0.657,0.859-1.493,0.859-2.512
		C83.882,4.686,83.596,3.85,83.022,3.192z"/>
	<path fill="#474747" d="M89.127,1.58C90.207,0.527,91.612,0,93.341,0s3.133,0.527,4.213,1.58c1.082,1.055,1.622,2.429,1.622,4.123
		c0,1.696-0.54,3.068-1.622,4.124c-1.08,1.054-2.484,1.58-4.213,1.58s-3.134-0.526-4.214-1.58c-1.082-1.056-1.623-2.428-1.623-4.124
		C87.504,4.009,88.045,2.635,89.127,1.58z M91.066,8.316c0.605,0.695,1.362,1.044,2.274,1.044c0.943,0,1.712-0.347,2.306-1.034
		c0.592-0.688,0.89-1.562,0.89-2.623c0-1.06-0.298-1.935-0.89-2.619c-0.594-0.69-1.362-1.033-2.306-1.033
		c-0.912,0-1.669,0.345-2.274,1.041c-0.604,0.694-0.906,1.564-0.906,2.611C90.16,6.751,90.463,7.625,91.066,8.316z"/>
	<path fill="#474747" d="M99.396,11.266v-1.158l6.216-7.9h-3.959v0.766h-2.162V0.142h9.843v1.178l-6.218,7.896h4.164V8.453h2.164
		v2.813H99.396z"/>
	<path fill="#474747" d="M110.523,0.142h5.644c1.136,0,2.058,0.349,2.768,1.043C119.644,1.877,120,2.779,120,3.893
		c0,1.103-0.356,2.001-1.065,2.692c-0.71,0.695-1.632,1.044-2.768,1.044h-2.147v1.968h0.845v1.669h-4.341V9.597h0.842V1.813h-0.842
		V0.142z M114.02,2.207v3.356h1.861c0.435,0,0.789-0.157,1.065-0.473c0.277-0.31,0.414-0.71,0.414-1.198
		c0-0.499-0.137-0.904-0.414-1.215c-0.276-0.313-0.631-0.471-1.065-0.471H114.02z"/>
	<path fill="#474747" d="M29.729,15.418V15.03c-0.116-0.029-0.253-0.044-0.411-0.044c-0.266,0-0.482,0.094-0.649,0.28
		c-0.167,0.186-0.25,0.426-0.25,0.716c0,0.292,0.083,0.531,0.25,0.718c0.167,0.188,0.383,0.28,0.649,0.28
		c0.309,0,0.546-0.089,0.713-0.267l0.449,0.442c-0.304,0.312-0.713,0.466-1.227,0.466c-0.501,0-0.906-0.151-1.217-0.454
		c-0.311-0.304-0.466-0.697-0.466-1.186c0-0.485,0.157-0.881,0.469-1.185c0.312-0.301,0.72-0.453,1.22-0.453
		c0.475,0,0.873,0.103,1.188,0.305v0.769H29.729z"/>
	<path fill="#474747" d="M30.852,14.394h1.233v0.604c0.112-0.196,0.259-0.349,0.44-0.462c0.182-0.115,0.385-0.172,0.607-0.172
		c0.376,0,0.683,0.149,0.918,0.452c0.236,0.3,0.354,0.688,0.354,1.166c0,0.484-0.147,0.874-0.44,1.17
		c-0.294,0.3-0.676,0.45-1.147,0.45c-0.27,0-0.513-0.052-0.733-0.152v0.965h0.386V19h-1.619v-0.585h0.386v-3.434h-0.386V14.394z
		 M32.084,16.853c0.22,0.074,0.433,0.109,0.644,0.109c0.244,0,0.444-0.092,0.597-0.273c0.156-0.182,0.231-0.418,0.231-0.706
		c0-0.286-0.072-0.521-0.215-0.7c-0.144-0.181-0.329-0.271-0.555-0.271c-0.197,0-0.363,0.077-0.499,0.232
		c-0.134,0.155-0.203,0.326-0.203,0.51V16.853z"/>
	<path fill="#474747" d="M36.883,17.083c-0.231,0.347-0.561,0.52-0.989,0.52c-0.317,0-0.577-0.088-0.778-0.261
		c-0.201-0.172-0.302-0.402-0.302-0.687c0-0.312,0.141-0.566,0.42-0.762c0.281-0.193,0.644-0.291,1.089-0.291
		c0.167,0,0.353,0.011,0.559,0.03v-0.095c0-0.169-0.056-0.303-0.167-0.403c-0.112-0.099-0.257-0.148-0.438-0.148
		c-0.24,0-0.443,0.03-0.61,0.09v0.342H34.95v-0.739c0.355-0.222,0.779-0.334,1.271-0.334c0.45,0,0.813,0.108,1.092,0.322
		c0.278,0.216,0.418,0.496,0.418,0.839v1.486h0.385v0.578h-1.233V17.083z M36.439,16.079c-0.227,0-0.413,0.046-0.559,0.143
		c-0.145,0.095-0.218,0.218-0.218,0.366c0,0.112,0.049,0.208,0.147,0.28c0.099,0.075,0.224,0.112,0.373,0.112
		c0.206,0,0.374-0.083,0.504-0.244c0.131-0.165,0.196-0.364,0.196-0.6C36.741,16.097,36.594,16.079,36.439,16.079z"/>
	<path fill="#474747" d="M38.437,14.394h2.029c0.284,0,0.512,0.08,0.685,0.236c0.173,0.156,0.26,0.36,0.26,0.611
		c0,0.321-0.137,0.553-0.412,0.698c0.176,0.05,0.316,0.144,0.421,0.282c0.104,0.137,0.157,0.301,0.157,0.492
		c0,0.255-0.092,0.461-0.276,0.618c-0.185,0.159-0.422,0.238-0.713,0.238h-2.152v-0.578h0.379v-2.019h-0.379V14.394z M39.67,15.697
		h0.527c0.107,0,0.194-0.031,0.263-0.092c0.068-0.063,0.103-0.14,0.103-0.232c0-0.097-0.034-0.177-0.103-0.238
		c-0.069-0.061-0.156-0.093-0.263-0.093H39.67V15.697z M39.67,16.924h0.675c0.111,0,0.203-0.032,0.276-0.097
		c0.073-0.063,0.109-0.143,0.109-0.239c0-0.104-0.037-0.187-0.109-0.247c-0.073-0.066-0.165-0.098-0.276-0.098H39.67V16.924z"/>
	<path fill="#474747" d="M41.949,14.394h1.62v0.588h-0.387v0.651h1.362v-0.651h-0.386v-0.588h1.619v0.588h-0.386v2.011h0.386v0.578
		h-1.619v-0.578h0.386v-0.718h-1.362v0.718h0.387v0.578h-1.62v-0.578h0.386v-2.011h-0.386V14.394z"/>
	<path fill="#474747" d="M46.972,16.243c0.039,0.226,0.144,0.403,0.314,0.536c0.171,0.134,0.382,0.201,0.629,0.201
		c0.335,0,0.587-0.091,0.759-0.273l0.462,0.458c-0.317,0.303-0.741,0.457-1.272,0.457c-0.513,0-0.932-0.151-1.256-0.454
		c-0.323-0.304-0.485-0.697-0.485-1.186c0-0.485,0.146-0.881,0.44-1.185c0.293-0.301,0.674-0.453,1.14-0.453
		c0.463,0,0.838,0.152,1.124,0.453c0.287,0.304,0.431,0.699,0.431,1.191v0.254H46.972z M48.41,15.697
		c0-0.207-0.065-0.377-0.198-0.507c-0.133-0.131-0.298-0.197-0.495-0.197c-0.185,0-0.343,0.065-0.478,0.194s-0.22,0.298-0.254,0.51
		H48.41z"/>
	<path fill="#474747" d="M49.605,14.394h1.618v0.588h-0.385v0.651H52.2v-0.651h-0.385v-0.588h1.618v0.588h-0.386v2.011h0.386v0.578
		h-1.618v-0.578H52.2v-0.718h-1.362v0.718h0.385v0.578h-1.618v-0.578h0.385v-2.011h-0.385V14.394z"/>
	<path fill="#474747" d="M55.996,16.992h0.385v-1.403l-1.395,1.981h-1.233v-0.578h0.38v-2.019h-0.38v-0.58h1.612v0.58h-0.379v1.402
		l1.395-1.982h1.228v0.58h-0.38v2.019h0.38v0.578h-1.612V16.992z"/>
	<path fill="#474747" d="M58.803,16.243c0.037,0.226,0.143,0.403,0.313,0.536c0.17,0.134,0.382,0.201,0.63,0.201
		c0.334,0,0.587-0.091,0.758-0.273l0.462,0.458c-0.317,0.303-0.74,0.457-1.271,0.457c-0.513,0-0.932-0.151-1.255-0.454
		c-0.324-0.304-0.485-0.697-0.485-1.186c0-0.485,0.146-0.881,0.439-1.185c0.294-0.301,0.674-0.453,1.139-0.453
		s0.84,0.152,1.126,0.453c0.287,0.304,0.431,0.699,0.431,1.191v0.254H58.803z M60.241,15.697c0-0.207-0.066-0.377-0.198-0.507
		c-0.136-0.131-0.301-0.197-0.495-0.197c-0.186,0-0.346,0.065-0.479,0.194s-0.219,0.298-0.253,0.51H60.241z"/>
	<path fill="#474747" d="M65.218,16.992h0.322l-0.515-0.806l-0.611,0.414v0.392h0.381v0.578h-1.614v-0.578h0.381v-2.019h-0.381
		v-0.58h1.614v0.58h-0.381v0.763l0.533-0.396l0.335-0.367h-0.181v-0.58h1.613v0.58h-0.38l-0.765,0.756l0.882,1.263h0.378v0.578
		h-1.612V16.992z"/>
	<path fill="#474747" d="M67.053,14.394h1.234v0.604c0.112-0.196,0.257-0.349,0.44-0.462c0.182-0.115,0.385-0.172,0.605-0.172
		c0.379,0,0.684,0.149,0.921,0.452c0.234,0.3,0.352,0.688,0.352,1.166c0,0.484-0.145,0.874-0.44,1.17
		c-0.291,0.3-0.674,0.45-1.145,0.45c-0.271,0-0.516-0.052-0.733-0.152v0.965h0.385V19h-1.619v-0.585h0.388v-3.434h-0.388V14.394z
		 M68.287,16.853c0.218,0.074,0.433,0.109,0.643,0.109c0.243,0,0.442-0.092,0.597-0.273c0.155-0.182,0.232-0.418,0.232-0.706
		c0-0.286-0.072-0.521-0.216-0.7c-0.143-0.181-0.328-0.271-0.556-0.271c-0.197,0-0.363,0.077-0.497,0.232
		c-0.135,0.155-0.203,0.326-0.203,0.51V16.853z"/>
	<path fill="#474747" d="M71.833,16.243c0.039,0.226,0.143,0.403,0.314,0.536c0.173,0.134,0.381,0.201,0.629,0.201
		c0.335,0,0.587-0.091,0.758-0.273l0.463,0.458c-0.317,0.303-0.741,0.457-1.273,0.457c-0.512,0-0.931-0.151-1.254-0.454
		c-0.325-0.304-0.486-0.697-0.486-1.186c0-0.485,0.147-0.881,0.44-1.185c0.294-0.301,0.673-0.453,1.142-0.453
		c0.461,0,0.837,0.152,1.124,0.453c0.288,0.304,0.429,0.699,0.429,1.191v0.254H71.833z M73.271,15.697
		c0-0.207-0.066-0.377-0.198-0.507c-0.132-0.131-0.298-0.197-0.495-0.197c-0.185,0-0.344,0.065-0.478,0.194
		c-0.136,0.129-0.221,0.298-0.255,0.51H73.271z"/>
	<path fill="#474747" d="M74.806,14.394h3.41v0.58h-0.378v1.95h0.545v1.598h-0.854V17.57h-2.312v0.951h-0.849v-1.598h0.315
		c0.097,0,0.18-0.056,0.247-0.162c0.065-0.108,0.121-0.311,0.166-0.604s0.075-0.689,0.087-1.184h-0.379V14.394z M75.718,16.924
		h1.272v-1.882h-0.95C76.04,15.864,75.932,16.491,75.718,16.924z"/>
	<path fill="#474747" d="M81.1,16.992h0.384v-1.403l-1.392,1.981h-1.234v-0.578h0.379v-2.019h-0.379v-0.58h1.613v0.58h-0.379v1.402
		l1.392-1.982h1.229v0.58h-0.379v2.019h0.379v0.578H81.1V16.992z"/>
	<path fill="#474747" d="M83.924,16.992h0.387v-1.95h-0.404v0.376h-0.714v-1.024h3.083v1.024h-0.719v-0.376h-0.398v1.95h0.377v0.578
		h-1.611V16.992z"/>
	<path fill="#474747" d="M87.064,14.798c0.313-0.301,0.723-0.453,1.228-0.453c0.501,0,0.908,0.152,1.221,0.453
		c0.313,0.304,0.469,0.699,0.469,1.185c0,0.488-0.156,0.882-0.469,1.186c-0.313,0.303-0.72,0.454-1.221,0.454
		c-0.505,0-0.914-0.151-1.228-0.454c-0.312-0.304-0.467-0.697-0.467-1.186C86.598,15.497,86.753,15.102,87.064,14.798z
		 M87.685,16.697c0.162,0.189,0.364,0.283,0.607,0.283c0.249,0,0.452-0.094,0.608-0.283c0.155-0.188,0.232-0.427,0.232-0.715
		c0-0.286-0.077-0.526-0.232-0.713c-0.156-0.189-0.359-0.283-0.608-0.283c-0.243,0-0.445,0.094-0.607,0.283
		c-0.161,0.187-0.24,0.427-0.24,0.713C87.444,16.271,87.523,16.51,87.685,16.697z"/>
	<path fill="#474747" d="M90.327,14.394h2.029c0.282,0,0.512,0.08,0.685,0.236s0.261,0.36,0.261,0.611
		c0,0.321-0.138,0.553-0.412,0.698c0.177,0.05,0.317,0.144,0.422,0.282c0.104,0.137,0.157,0.301,0.157,0.492
		c0,0.255-0.093,0.461-0.275,0.618c-0.186,0.159-0.424,0.238-0.715,0.238h-2.151v-0.578h0.379v-2.019h-0.379V14.394z M91.56,15.697
		h0.529c0.104,0,0.195-0.031,0.262-0.092c0.069-0.063,0.104-0.14,0.104-0.232c0-0.097-0.034-0.177-0.104-0.238
		c-0.066-0.061-0.157-0.093-0.262-0.093H91.56V15.697z M91.56,16.924h0.675c0.111,0,0.204-0.032,0.275-0.097
		c0.075-0.063,0.111-0.143,0.111-0.239c0-0.104-0.036-0.187-0.111-0.247c-0.071-0.066-0.164-0.098-0.275-0.098H91.56V16.924z"/>
	<path fill="#474747" d="M96.081,14.798c0.313-0.301,0.723-0.453,1.229-0.453c0.5,0,0.906,0.152,1.221,0.453
		c0.311,0.304,0.468,0.699,0.468,1.185c0,0.488-0.157,0.882-0.468,1.186c-0.314,0.303-0.721,0.454-1.221,0.454
		c-0.506,0-0.915-0.151-1.229-0.454c-0.312-0.304-0.468-0.697-0.468-1.186C95.613,15.497,95.77,15.102,96.081,14.798z
		 M96.701,16.697c0.161,0.189,0.364,0.283,0.608,0.283c0.248,0,0.451-0.094,0.607-0.283c0.155-0.188,0.232-0.427,0.232-0.715
		c0-0.286-0.077-0.526-0.232-0.713c-0.156-0.189-0.359-0.283-0.607-0.283c-0.244,0-0.447,0.094-0.608,0.283
		c-0.16,0.187-0.239,0.427-0.239,0.713C96.462,16.271,96.541,16.51,96.701,16.697z"/>
	<path fill="#474747" d="M99.336,14.394h1.619v0.588h-0.385v0.651h1.361v-0.651h-0.384v-0.588h1.618v0.588h-0.388v2.011h0.388v0.578
		h-1.618v-0.578h0.384v-0.718h-1.361v0.718h0.385v0.578h-1.619v-0.578h0.387v-2.011h-0.387V14.394z"/>
	<path fill="#474747" d="M105.953,16.992h0.387v-1.95h-0.92c0,0.954-0.084,1.62-0.254,2.006c-0.169,0.383-0.472,0.574-0.909,0.574
		c-0.287,0-0.535-0.105-0.745-0.312l0.432-0.425c0.067,0.063,0.146,0.095,0.236,0.095c0.155,0,0.259-0.137,0.307-0.413
		c0.049-0.276,0.079-0.805,0.088-1.594h-0.387v-0.58h3.384v0.58h-0.385v2.019h0.385v0.578h-1.618V16.992z"/>
	<path fill="#474747" d="M110.012,17.083c-0.229,0.347-0.561,0.52-0.991,0.52c-0.313,0-0.572-0.088-0.775-0.261
		c-0.2-0.172-0.303-0.402-0.303-0.687c0-0.312,0.142-0.566,0.423-0.762c0.279-0.193,0.643-0.291,1.088-0.291
		c0.168,0,0.354,0.011,0.559,0.03v-0.095c0-0.169-0.056-0.303-0.168-0.403c-0.11-0.099-0.256-0.148-0.435-0.148
		c-0.241,0-0.445,0.03-0.61,0.09v0.342h-0.719v-0.739c0.354-0.222,0.777-0.334,1.27-0.334c0.45,0,0.813,0.108,1.094,0.322
		c0.278,0.216,0.417,0.496,0.417,0.839v1.486h0.385v0.578h-1.233V17.083z M109.569,16.079c-0.229,0-0.413,0.046-0.561,0.143
		c-0.144,0.095-0.218,0.218-0.218,0.366c0,0.112,0.049,0.208,0.147,0.28c0.101,0.075,0.225,0.112,0.372,0.112
		c0.206,0,0.377-0.083,0.506-0.244c0.131-0.165,0.195-0.364,0.195-0.6C109.87,16.097,109.722,16.079,109.569,16.079z"/>
	<path fill="#474747" d="M113.808,16.992h0.387v-1.403l-1.396,1.981h-1.234v-0.578h0.38v-2.019h-0.38v-0.58h1.613v0.58h-0.379v1.402
		l1.396-1.982h1.226v0.58h-0.379v2.019h0.379v0.578h-1.612V16.992z M112.728,12.999c0.176,0.165,0.433,0.248,0.766,0.248
		c0.334,0,0.589-0.083,0.765-0.248l0.404,0.398c-0.286,0.293-0.676,0.439-1.169,0.439c-0.492,0-0.884-0.146-1.17-0.439
		L112.728,12.999z"/>
	<path fill="#474747" d="M115.734,14.394h1.618v0.588h-0.384v0.651h1.361v-0.651h-0.388v-0.588h1.619v0.588h-0.386v2.011h0.386
		v0.578h-1.619v-0.578h0.388v-0.718h-1.361v0.718h0.384v0.578h-1.618v-0.578h0.386v-2.011h-0.386V14.394z"/>
</g>
</svg>
