<svg viewBox="0 0 180 32" fill="none" xmlns="http://www.w3.org/2000/svg" width="800" height="142">
<path d="M54.0564 26.8328C54.0564 27.5272 53.852 28.0844 53.4432 28.5044C53.04 28.9244 52.4996 29.1344 51.822 29.1344C51.1444 29.1344 50.6012 28.9244 50.1924 28.5044C49.7836 28.0844 49.5792 27.5272 49.5792 26.8328C49.5792 26.144 49.7864 25.5896 50.2008 25.1696C50.6152 24.7496 51.1612 24.5396 51.8388 24.5396C52.5052 24.5396 53.04 24.7496 53.4432 25.1696C53.852 25.5896 54.0564 26.144 54.0564 26.8328ZM52.8636 26.8244C52.8636 26.3932 52.7684 26.0572 52.578 25.8164C52.3932 25.57 52.1356 25.4468 51.8052 25.4468C51.486 25.4468 51.234 25.57 51.0492 25.8164C50.8644 26.0628 50.772 26.4016 50.772 26.8328C50.772 27.2752 50.8644 27.6196 51.0492 27.866C51.234 28.1124 51.4916 28.2356 51.822 28.2356C52.1524 28.2356 52.4072 28.1124 52.5864 27.866C52.7712 27.614 52.8636 27.2668 52.8636 26.8244ZM59.9975 29H58.8131V27.1772H57.1415V29H55.9571V24.6656H57.1415V26.2364H58.8131V24.6656H59.9975V29ZM66.0516 29H64.8672V25.5812H63.7248L63.6744 27.11C63.6688 27.278 63.6632 27.4124 63.6576 27.5132C63.652 27.6084 63.6352 27.7372 63.6072 27.8996C63.5848 28.062 63.5568 28.1936 63.5232 28.2944C63.4896 28.3896 63.4364 28.4988 63.3636 28.622C63.2964 28.7396 63.2152 28.832 63.12 28.8992C63.0304 28.9608 62.9128 29.014 62.7672 29.0588C62.6216 29.1092 62.4592 29.1344 62.28 29.1344C61.9888 29.1344 61.7732 29.1064 61.6332 29.0504V28.1012C61.7732 28.1292 61.8852 28.1432 61.9692 28.1432C62.3108 28.1432 62.49 27.8436 62.5068 27.2444L62.574 24.6656H66.0516V29ZM72.1309 29H70.9213C70.8821 28.888 70.8541 28.748 70.8373 28.58C70.4733 28.944 70.0057 29.126 69.4345 29.126C68.9529 29.126 68.5749 29.0112 68.3005 28.7816C68.0261 28.5464 67.8889 28.2244 67.8889 27.8156C67.8889 27.6308 67.9113 27.4684 67.9561 27.3284C68.0065 27.1884 68.0849 27.0708 68.1913 26.9756C68.3033 26.8804 68.4069 26.802 68.5021 26.7404C68.6029 26.6788 68.7401 26.6284 68.9137 26.5892C69.0873 26.55 69.2273 26.522 69.3337 26.5052C69.4401 26.4828 69.5885 26.4604 69.7789 26.438C70.1989 26.382 70.4789 26.3232 70.6189 26.2616C70.7645 26.2 70.8373 26.0852 70.8373 25.9172C70.8373 25.5308 70.5769 25.3376 70.0561 25.3376C69.7817 25.3376 69.5801 25.388 69.4513 25.4888C69.3225 25.584 69.2385 25.7548 69.1993 26.0012H68.0821C68.1493 25.0268 68.8185 24.5396 70.0897 24.5396C71.3497 24.5396 71.9797 25.01 71.9797 25.9508V27.824C71.9797 28.3728 72.0301 28.7648 72.1309 29ZM70.8289 26.8916C70.6889 26.9756 70.4089 27.0512 69.9889 27.1184C69.6361 27.1744 69.4065 27.2444 69.3001 27.3284C69.1769 27.4348 69.1153 27.5804 69.1153 27.7652C69.1153 27.9444 69.1713 28.0872 69.2833 28.1936C69.4009 28.2944 69.5633 28.3448 69.7705 28.3448C70.0897 28.3448 70.3445 28.2608 70.5349 28.0928C70.7309 27.9192 70.8289 27.6812 70.8289 27.3788V26.8916ZM76.954 23.0192H77.4244C77.4244 23.8256 76.968 24.2288 76.0552 24.2288C75.1424 24.2288 74.686 23.8256 74.686 23.0192H75.1564C75.2292 23.3888 75.5288 23.5736 76.0552 23.5736C76.5816 23.5736 76.8812 23.3888 76.954 23.0192ZM78.0796 29H76.9372V26.0684L75.3916 29H74.0392V24.6656H75.1816V27.5972L76.7272 24.6656H78.0796V29ZM84.1588 29H82.9744V27.1772H81.3028V29H80.1184V24.6656H81.3028V26.2364H82.9744V24.6656H84.1588V29ZM94.0456 29H92.6008L91.3492 27.1352L90.82 27.6728V29H89.6524V24.6656H90.82V26.3792L92.4076 24.6656H93.8104L92.1304 26.3456L94.0456 29ZM96.6679 24.6656V25.2032C96.9815 24.7664 97.4295 24.548 98.0119 24.548C98.5943 24.548 99.0619 24.758 99.4147 25.178C99.7675 25.598 99.9439 26.158 99.9439 26.858C99.9439 27.5356 99.7703 28.0816 99.4231 28.496C99.0815 28.9048 98.6279 29.1092 98.0623 29.1092C97.4799 29.1092 97.0347 28.8936 96.7267 28.4624V30.5372H95.5423V24.6656H96.6679ZM97.7179 25.5056C97.3931 25.5056 97.1383 25.6232 96.9535 25.8584C96.7743 26.0936 96.6847 26.4212 96.6847 26.8412C96.6847 27.2612 96.7771 27.5888 96.9619 27.824C97.1467 28.0592 97.4015 28.1768 97.7263 28.1768C98.0455 28.1768 98.2947 28.0592 98.4739 27.824C98.6587 27.5888 98.7511 27.2668 98.7511 26.858C98.7511 26.438 98.6587 26.1076 98.4739 25.8668C98.2891 25.626 98.0371 25.5056 97.7179 25.5056ZM105.851 27.656C105.717 28.1208 105.468 28.482 105.104 28.7396C104.745 28.9972 104.317 29.126 103.819 29.126C103.152 29.126 102.615 28.9188 102.206 28.5044C101.803 28.09 101.601 27.5412 101.601 26.858C101.601 26.186 101.805 25.6316 102.214 25.1948C102.623 24.758 103.144 24.5396 103.777 24.5396C104.432 24.5396 104.953 24.7636 105.339 25.2116C105.725 25.654 105.919 26.256 105.919 27.0176V27.1352H102.811C102.816 27.5104 102.906 27.796 103.079 27.992C103.259 28.188 103.508 28.286 103.827 28.286C104.247 28.286 104.541 28.076 104.709 27.656H105.851ZM104.709 26.3792C104.681 26.0936 104.589 25.8612 104.432 25.682C104.275 25.4972 104.057 25.4048 103.777 25.4048C103.513 25.4048 103.295 25.4916 103.121 25.6652C102.948 25.8388 102.844 26.0768 102.811 26.3792H104.709ZM112.249 30.2768H111.132V29H108.276V30.2768H107.158V28.0844H107.679C107.819 27.8156 107.945 27.4236 108.057 26.9084C108.169 26.3932 108.225 25.8976 108.225 25.4216V24.6656H111.686V28.0844H112.249V30.2768ZM110.502 28.0844V25.5476H109.334V25.6568C109.334 26.0768 109.281 26.522 109.174 26.9924C109.074 27.4572 108.964 27.8212 108.847 28.0844H110.502ZM117.985 29H116.843V26.0684L115.297 29H113.945V24.6656H115.087V27.5972L116.633 24.6656H117.985V29ZM123.678 25.5812H122.25V29H121.066V25.5812H119.638V24.6656H123.678V25.5812ZM129.499 24.6656H130.683V29H129.499V24.6656ZM128.953 27.572C128.953 28.0368 128.802 28.3924 128.499 28.6388C128.202 28.8796 127.808 29 127.315 29H125.248V24.6656H126.424V26.1524H127.365C127.824 26.1524 128.202 26.2756 128.499 26.522C128.802 26.7684 128.953 27.1184 128.953 27.572ZM126.424 26.9588V28.1768H127.029C127.511 28.1768 127.752 27.9752 127.752 27.572C127.752 27.3704 127.684 27.2192 127.55 27.1184C127.416 27.012 127.239 26.9588 127.021 26.9588H126.424ZM140.128 29H138.944V27.1772H137.272V29H136.088V24.6656H137.272V26.2364H138.944V24.6656H140.128V29ZM146.182 29H144.973C144.934 28.888 144.906 28.748 144.889 28.58C144.525 28.944 144.057 29.126 143.486 29.126C143.004 29.126 142.626 29.0112 142.352 28.7816C142.078 28.5464 141.94 28.2244 141.94 27.8156C141.94 27.6308 141.963 27.4684 142.008 27.3284C142.058 27.1884 142.136 27.0708 142.243 26.9756C142.355 26.8804 142.458 26.802 142.554 26.7404C142.654 26.6788 142.792 26.6284 142.965 26.5892C143.139 26.55 143.279 26.522 143.385 26.5052C143.492 26.4828 143.64 26.4604 143.83 26.438C144.25 26.382 144.53 26.3232 144.67 26.2616C144.816 26.2 144.889 26.0852 144.889 25.9172C144.889 25.5308 144.628 25.3376 144.108 25.3376C143.833 25.3376 143.632 25.388 143.503 25.4888C143.374 25.584 143.29 25.7548 143.251 26.0012H142.134C142.201 25.0268 142.87 24.5396 144.141 24.5396C145.401 24.5396 146.031 25.01 146.031 25.9508V27.824C146.031 28.3728 146.082 28.7648 146.182 29ZM144.88 26.8916C144.74 26.9756 144.46 27.0512 144.04 27.1184C143.688 27.1744 143.458 27.2444 143.352 27.3284C143.228 27.4348 143.167 27.5804 143.167 27.7652C143.167 27.9444 143.223 28.0872 143.335 28.1936C143.452 28.2944 143.615 28.3448 143.822 28.3448C144.141 28.3448 144.396 28.2608 144.586 28.0928C144.782 27.9192 144.88 27.6812 144.88 27.3788V26.8916ZM155.939 29H154.494L153.242 27.1352L152.713 27.6728V29H151.545V24.6656H152.713V26.3792L154.301 24.6656H155.703L154.023 26.3456L155.939 29ZM161.467 29H160.258C160.218 28.888 160.19 28.748 160.174 28.58C159.81 28.944 159.342 29.126 158.771 29.126C158.289 29.126 157.911 29.0112 157.637 28.7816C157.362 28.5464 157.225 28.2244 157.225 27.8156C157.225 27.6308 157.248 27.4684 157.292 27.3284C157.343 27.1884 157.421 27.0708 157.528 26.9756C157.64 26.8804 157.743 26.802 157.838 26.7404C157.939 26.6788 158.076 26.6284 158.25 26.5892C158.424 26.55 158.564 26.522 158.67 26.5052C158.776 26.4828 158.925 26.4604 159.115 26.438C159.535 26.382 159.815 26.3232 159.955 26.2616C160.101 26.2 160.174 26.0852 160.174 25.9172C160.174 25.5308 159.913 25.3376 159.392 25.3376C159.118 25.3376 158.916 25.388 158.788 25.4888C158.659 25.584 158.575 25.7548 158.536 26.0012H157.418C157.486 25.0268 158.155 24.5396 159.426 24.5396C160.686 24.5396 161.316 25.01 161.316 25.9508V27.824C161.316 28.3728 161.366 28.7648 161.467 29ZM160.165 26.8916C160.025 26.9756 159.745 27.0512 159.325 27.1184C158.972 27.1744 158.743 27.2444 158.636 27.3284C158.513 27.4348 158.452 27.5804 158.452 27.7652C158.452 27.9444 158.508 28.0872 158.62 28.1936C158.737 28.2944 158.9 28.3448 159.107 28.3448C159.426 28.3448 159.681 28.2608 159.871 28.0928C160.067 27.9192 160.165 27.6812 160.165 27.3788V26.8916ZM164.484 24.6656V25.2032C164.798 24.7664 165.246 24.548 165.828 24.548C166.411 24.548 166.878 24.758 167.231 25.178C167.584 25.598 167.76 26.158 167.76 26.858C167.76 27.5356 167.587 28.0816 167.239 28.496C166.898 28.9048 166.444 29.1092 165.879 29.1092C165.296 29.1092 164.851 28.8936 164.543 28.4624V30.5372H163.359V24.6656H164.484ZM165.534 25.5056C165.209 25.5056 164.955 25.6232 164.77 25.8584C164.591 26.0936 164.501 26.4212 164.501 26.8412C164.501 27.2612 164.593 27.5888 164.778 27.824C164.963 28.0592 165.218 28.1768 165.543 28.1768C165.862 28.1768 166.111 28.0592 166.29 27.824C166.475 27.5888 166.567 27.2668 166.567 26.858C166.567 26.438 166.475 26.1076 166.29 25.8668C166.105 25.626 165.853 25.5056 165.534 25.5056ZM173.117 25.5812H171.689V29H170.505V25.5812H169.077V24.6656H173.117V25.5812ZM178.686 24.6656L177.09 28.9832C177.011 29.2016 176.953 29.3528 176.913 29.4368C176.88 29.5264 176.824 29.6496 176.745 29.8064C176.673 29.9632 176.603 30.0724 176.535 30.134C176.474 30.1956 176.387 30.2656 176.275 30.344C176.169 30.4224 176.045 30.4756 175.905 30.5036C175.771 30.5316 175.614 30.5456 175.435 30.5456C175.289 30.5456 175.023 30.5428 174.637 30.5372V29.5544H175.217C175.413 29.5544 175.561 29.504 175.662 29.4032C175.768 29.3024 175.821 29.1596 175.821 28.9748C175.821 28.93 175.81 28.874 175.788 28.8068L174.217 24.6656H175.502L176.493 27.614L177.451 24.6656H178.686Z" fill="#003764"/>
<path d="M50.521 20.5745V2.87012H54.0939L59.273 10.2693L64.4528 2.87012H68.025V20.5745H64.7935V7.49232L59.2575 15.3245L53.7208 7.49232V20.5898H50.5218V20.5745H50.521Z" fill="#003764"/>
<path d="M70.7344 2.87012H74.631L79.372 10.06L84.096 2.87012H87.9927L80.9951 12.9806V20.5738H77.7644V12.9806L70.7344 2.87012Z" fill="#003764"/>
<path d="M90.4922 15.5337C90.1515 14.4424 89.9893 13.16 89.9893 11.715C89.9893 10.2692 90.1507 8.98614 90.4922 7.89551C90.8329 6.80335 91.2724 5.92198 91.8078 5.26134C92.3432 4.60299 92.9929 4.07372 93.7553 3.67275C94.5178 3.25498 95.2664 2.98308 95.9794 2.85477C96.7095 2.71043 97.489 2.64551 98.3333 2.64551C100.168 2.64551 101.971 2.99836 103.756 3.68879V6.67504C102.051 5.90518 100.347 5.50269 98.6091 5.50269C97.798 5.50269 97.1151 5.56684 96.5473 5.71119C95.9794 5.8563 95.4109 6.1282 94.8755 6.52916C94.3231 6.93166 93.9183 7.57397 93.624 8.4393C93.3328 9.30691 93.2037 10.3991 93.2037 11.6997C93.2037 13.0149 93.349 14.1048 93.624 14.9571C93.9013 15.8232 94.3231 16.4495 94.8755 16.868C95.4271 17.2697 95.9794 17.5424 96.5473 17.6868C97.1151 17.8311 97.8158 17.8945 98.6091 17.8945C100.331 17.8945 102.051 17.5103 103.756 16.7221V19.6924C101.97 20.3981 100.153 20.7517 98.3333 20.7517C97.489 20.7517 96.7095 20.6868 95.9794 20.5416C95.2494 20.3981 94.5178 20.1254 93.7553 19.7244C92.9929 19.3074 92.3432 18.7781 91.8078 18.1358C91.2724 17.5088 90.8336 16.6267 90.4922 15.5337Z" fill="#0055B8"/>
<path d="M107.539 20.5745V2.87012H114.424C116.519 2.87012 118.158 3.36732 119.311 4.34568C120.48 5.3248 121.065 6.7385 121.065 8.56767C121.065 11.2652 119.75 13.0134 117.136 13.8016L121.844 20.5745H117.947L113.678 14.3309H110.788V20.5745H107.539ZM110.771 11.4081H114.343C115.43 11.4081 116.29 11.2171 116.907 10.8307C117.524 10.448 117.833 9.72322 117.833 8.64939C117.833 7.55723 117.524 6.81869 116.907 6.4498C116.29 6.06487 115.43 5.88845 114.343 5.88845H110.771V11.4081Z" fill="#0055B8"/>
<path d="M125.075 20.5745V2.87012H136.992V5.72653H128.307V10.2036H135.839V13.2059H128.307V17.6845H136.992V20.5394H125.075V20.5745Z" fill="#0055B8"/>
<path d="M140.856 20.5745V2.87012H147.042C149.817 2.87012 151.913 3.62394 153.359 5.13387C154.787 6.64227 155.516 8.84109 155.516 11.7464C155.516 14.6349 154.803 16.8345 153.374 18.3253C151.946 19.8352 149.835 20.5898 147.058 20.5898H140.857V20.5745H140.856ZM144.071 17.7174H147.025C148.893 17.7174 150.224 17.25 151.036 16.3205C151.847 15.3887 152.269 13.8643 152.269 11.7464C152.269 9.61324 151.864 8.07047 151.036 7.1387C150.223 6.20999 148.876 5.74257 147.025 5.74257H144.071V17.7174Z" fill="#0055B8"/>
<path d="M159.461 20.5745V2.87012H162.694V20.5745H159.461Z" fill="#0055B8"/>
<path d="M165.323 6.06335V2.87012H180V6.06335H174.252V20.5745H171.021V6.06335H165.323Z" fill="#0055B8"/>
<path d="M30.2059 1.5168C29.594 0.682027 28.2382 -2.50558e-07 27.1953 -2.50558e-07H1.89656C0.852874 -2.50558e-07 8.48726e-07 0.843178 8.48726e-07 1.875V4.84598H32.6525L30.2059 1.5168Z" fill="#003764"/>
<path d="M39.0003 13.4833L35.0087 8.05225H8.48726e-07V28.1251C8.48726e-07 29.1569 0.852874 30.0001 1.89656 30.0001H27.1961C28.239 30.0001 29.594 29.3165 30.2066 28.4833L39.0011 16.5169C39.613 15.6813 39.613 14.3173 39.0003 13.4833ZM6.62598 25.8896H5.13422C4.30839 25.8896 3.6417 25.2266 3.6417 24.4125C3.6417 23.5983 4.30839 22.9362 5.13422 22.9362H6.62598C7.45181 22.9362 8.11851 23.5976 8.11851 24.4125C8.11928 25.2259 7.45258 25.8896 6.62598 25.8896ZM18.2564 25.8896H11.9263C11.1012 25.8896 10.4345 25.2266 10.4345 24.4125C10.4345 23.5983 11.1005 22.9362 11.9263 22.9362H18.2564C19.0815 22.9362 19.7482 23.5976 19.7482 24.4125C19.7482 25.2259 19.0815 25.8896 18.2564 25.8896ZM18.5662 18.5118H5.13422C4.30839 18.5118 3.6417 17.8496 3.6417 17.0354C3.6417 16.2213 4.30839 15.5584 5.13422 15.5584H18.5654C19.3912 15.5584 20.0579 16.2213 20.0579 17.0354C20.0579 17.8496 19.3912 18.5118 18.5662 18.5118Z" fill="#0055B8"/>
</svg>