<?xml version="1.0" encoding="utf-8"?>
<!-- Generator: Adobe Illustrator 16.0.0, SVG Export Plug-In . SVG Version: 6.00 Build 0)  -->
<svg version="1.2" baseProfile="tiny" id="Слой_1"
	 xmlns="http://www.w3.org/2000/svg" xmlns:xlink="http://www.w3.org/1999/xlink" x="0px" y="0px" width="600px" height="200px"
	 viewBox="0 0 600 200" xml:space="preserve">
<path fill-rule="evenodd" fill="#0D57A4" d="M54.232,61.896c0,17.989,0,35.978,0,54.131c4.494,0,8.834,0,13.439,0
	c0-17.83,0-35.614,0-53.513c6.865,0,13.47,0,20.252,0c0,22.773,0,45.534,0,68.617c-28.987,0-57.987,0-86.989,0
	c0-23.079,0-46.157,0-69.235c6.678,0,13.302,0,19.924,0c0,18.038,0,36.078,0,54.118c4.646,0,8.986,0,13.449,0
	c0-18.157,0-36.138,0-54.118C40.949,61.896,47.59,61.896,54.232,61.896z"/>
<path fill-rule="evenodd" fill="#0D57A4" d="M199.678,138.104c0-5.872,0-11.745,0-17.515c0.299-0.192,0.426-0.341,0.562-0.349
	c4.321-0.243,5.068-0.551,6.311-5.097c1.062-3.887,1.783-7.947,2.01-11.966c0.332-5.848,0.086-11.729,0.086-17.73
	c14.996,0,29.783,0,44.825,0c0,11.563,0,23.037,0,34.684c1.715,0,3.178,0,4.982,0c0,6.105,0,12.04,0,17.974
	c-5.645,0-11.29,0-16.935,0c0-2.278,0-4.556,0-6.815c-8.309,0-16.279,0-24.407,0c0,2.378,0,4.597,0,6.815
	C211.3,138.104,205.489,138.104,199.678,138.104z M226.094,96.371c0.034,8.219-0.2,16.208-3.801,23.603c4.17,0,8.176,0,12.122,0
	c0-7.967,0-15.732,0-23.603C231.661,96.371,229.039,96.371,226.094,96.371z"/>
<path fill-rule="evenodd" fill="#73CBF2" d="M390.949,138.104c0-17.496,0-34.991,0-52.641c5.685,0,11.187,0,16.887,0
	c0,1.696,0,3.315,0,5.358c1.326-1.245,2.3-2.249,3.363-3.147c8.646-7.29,24.272-4.072,29.124,7.233
	c1.604,3.742,2.435,7.528,2.47,11.601c0.045,5.208-0.073,10.338-2.706,15.023c-3.805,6.78-9.487,10.552-17.402,10.587
	c-6.294,0.028-6.846-0.174-12.807-4.269c0,3.522,0,6.889,0,10.254C403.567,138.104,397.257,138.104,390.949,138.104z
	 M424.347,107.047c-0.033-0.53-0.095-1.054-0.179-1.562c-0.195-1.176-0.572-2.643-1.202-3.666c-1.02-1.663-2.813-3.303-4.618-3.92
	c-2.479-0.845-5.128-0.125-6.708,2.365c-2.855,4.496-3.124,10.028-0.183,14.713c2.382,3.794,5.945,3.983,9.125,1.696
	C423.557,114.532,424.566,110.614,424.347,107.047z"/>
<path fill-rule="evenodd" fill="#73CBF2" d="M500.215,85.37c5.9,0,11.618,0,17.608,0c0,10.494,0,20.979,0,31.64
	c3.778,0,7.292,0,11.079,0c0-10.494,0-20.981,0-31.582c6.048,0,11.823,0,17.873,0c0,10.497,0,20.983,0,31.613
	c3.721,0,7.174,0,10.901,0c0-10.41,0-20.895,0-31.556c6.104,0,11.941,0,17.921,0c0,15.092,0,30.164,0,45.44
	c-25.021,0-50.112,0-75.383,0C500.215,115.87,500.215,100.74,500.215,85.37z"/>
<path fill-rule="evenodd" fill="#0D57A4" d="M146.066,85.309c0.674,0,1.164,0,1.655,0c5.228,0,10.456,0,15.921,0
	c0,7.661,0,15.251,0,22.844c0.178,0.065,0.356,0.13,0.535,0.197c2.042-3.222,4.096-6.437,6.125-9.666
	c2.506-3.99,4.94-8.028,7.534-11.96c0.453-0.686,1.534-1.337,2.339-1.353c5.716-0.116,11.437-0.062,17.331-0.062
	c0,15.263,0,30.396,0,45.674c-5.794,0-11.571,0-17.585,0c0-7.526,0-15.118,0-22.71c-0.173-0.064-0.347-0.13-0.52-0.195
	c-2.2,3.327-4.409,6.646-6.596,9.979c-2.497,3.805-4.924,7.658-7.503,11.406c-0.515,0.749-1.57,1.57-2.396,1.591
	c-5.551,0.141-11.105,0.073-16.84,0.073C146.066,115.873,146.066,100.741,146.066,85.309z"/>
<path fill-rule="evenodd" fill="#0D57A4" d="M133.259,106.938c5.971,1.914,9.391,6.156,9.125,10.921
	c-0.351,6.27-4.203,10.841-10.657,12.209c-2.938,0.624-5.984,0.977-8.987,1.015c-9.777,0.123-19.557,0.046-29.494,0.046
	c0-15.297,0-30.427,0-45.82c2.77,0,5.484,0,8.198,0c7.883,0,15.771-0.133,23.649,0.051c4.513,0.106,8.967,1.001,12.401,4.298
	c4.934,4.736,3.885,12.607-2.035,16.058C134.842,106.074,134.21,106.41,133.259,106.938z M111.07,120.345
	c3.503-0.216,6.979-0.382,10.446-0.664c1.769-0.145,2.418-1.301,2.481-3.029c0.068-1.848-0.665-3.207-2.426-3.414
	c-3.458-0.405-6.95-0.499-10.501-0.727C111.07,115.3,111.07,117.531,111.07,120.345z M111.123,103.425
	c3.24-0.245,6.265-0.361,9.254-0.75c1.594-0.207,2.937-1.457,2.471-3.049c-1.425-4.872-7.937-3.356-11.725-3.356
	C111.123,98.648,111.123,100.772,111.123,103.425z"/>
<path fill-rule="evenodd" fill="#73CBF2" d="M363.761,62.49c14.677,0,29.25,0,43.974,0c0,5.204,0,10.317,0,15.704
	c-7.587,0-15.251,0-23.184,0c0,17.727,0,35.183,0,52.787c-7.039,0-13.813,0-20.79,0C363.761,108.286,363.761,85.519,363.761,62.49z"
	/>
<path fill-rule="evenodd" fill="#0D57A4" d="M334.387,132.333c-6.255,0.219-12.064-1.204-17.186-4.74
	c-5.776-3.989-8.659-9.69-8.939-16.713c-0.208-5.204,0.141-10.277,2.66-15.016c3.619-6.807,9.584-10.181,16.856-11.515
	c5.617-1.03,11.175-0.558,16.742,0.902c7.729,2.026,14.26,8.74,15.54,16.671c1.146,7.09,0.966,13.99-3.223,20.262
	c-3.574,5.352-8.75,8.183-14.878,9.397C339.482,132.074,336.914,132.097,334.387,132.333z M326.445,107.641
	c-0.131,2.158,0.185,4.327,1.025,6.275c1.223,2.831,3.736,5.834,7.086,5.834c6.177,0.002,8.115-8.272,7.697-13.073
	c-0.355-4.058-2.714-9.486-7.265-10.183c-2.498-0.382-4.712,1.356-6,3.341C327.519,102.094,326.613,104.858,326.445,107.641z"/>
<path fill-rule="evenodd" fill="#73CBF2" d="M470.742,132.359c-1.44,0.024-2.88-0.036-4.311-0.18
	c-2.285-0.233-4.55-0.729-6.721-1.48c-1.398-0.483-2.742-1.136-4.03-1.862c-1.301-0.732-2.542-1.595-3.699-2.537
	c-4.244-3.453-6.561-7.981-7.092-13.128c-0.423-4.102-0.146-8.453,0.761-12.482c1.957-8.707,7.971-13.726,16.443-15.856
	c7.504-1.887,15-1.448,22.073,1.587c6.566,2.82,10.811,8.089,12.294,15.101c1.213,5.739,0.997,11.499-1.34,17.096
	c-2.31,5.538-6.259,9.43-11.736,11.405C479.348,131.479,475.046,132.289,470.742,132.359z M463.06,107.646
	c-0.115,1.917,0.058,3.837,0.601,5.6c0.324,1.051,0.786,2.183,1.387,3.109c2.497,3.859,7.9,4.573,10.877,0.835
	c3.26-4.091,3.531-13.808-0.019-17.896c-3.719-4.287-9.278-3.389-11.396,1.912C463.722,103.177,463.195,105.409,463.06,107.646z"/>
<path fill-rule="evenodd" fill="#73CBF2" d="M597.979,131.02c-6.102,0-12.04,0-18.112,0c0-15.171,0-30.235,0-45.505
	c5.937,0,11.933,0,18.112,0C597.979,100.559,597.979,115.682,597.979,131.02z"/>
<circle fill-rule="evenodd" fill="#73CBF2" cx="589.352" cy="71.775" r="9.715"/>
<path fill-rule="evenodd" fill="#0D57A4" d="M312.221,126.524c-4.887-7.094-9.705-14.235-14.707-21.246
	c-1.238-1.735-1.368-2.757,0.252-4.317c5.093-4.906,10.021-9.983,15.014-14.995c-0.129-0.219-0.258-0.438-0.388-0.657
	c-6.343,0-12.689,0.111-19.029-0.062c-2.148-0.059-3.318,0.939-4.503,2.395c-2.783,3.417-5.626,6.787-8.829,10.632V85.371H261.6
	v45.707h18.432v-11.949c0.485-1.227,1.548-2.112,3.056-3.723c2.063,3.35,8.963,15.484,8.963,15.484s17.93,0.238,23.332,0.238
	C314.127,129.302,313.177,127.911,312.221,126.524z"/>
</svg>
