<?xml version="1.0" encoding="utf-8"?>
<!-- Generator: Adobe Illustrator 13.0.0, SVG Export Plug-In . SVG Version: 6.00 Build 14948)  -->
<svg version="1.2" baseProfile="tiny" id="Layer_1" xmlns="http://www.w3.org/2000/svg" xmlns:xlink="http://www.w3.org/1999/xlink"
	 x="0px" y="0px" width="140.001px" height="119.488px" viewBox="0 0 140.001 119.488" xml:space="preserve">
<g>
	<path fill-rule="evenodd" fill="#474747" d="M42.757,119.167c2.055-2.508,6.267-3.838,9.022-5.453
		c2.731-1.601,5.942-4.514,9.168-4.816c7.88-0.74,16.194,0.021,24.116,0.021c8.553,0,17.106,0.003,25.66,0.027
		c4.209,0.013,8.417,0.029,12.626,0.05c2.104,0.011,4.209,0.022,6.313,0.035c1.057,0.006,2.114,0.013,3.171,0.02
		c2.157,0.014,1.768,0.421,1.651,2.344c-0.444,7.352-6.912,7.991-12.871,8.067c-8.52,0.109-17.051-0.155-25.573-0.146
		C78.28,119.334,60.517,119.381,42.757,119.167"/>
	<path fill-rule="evenodd" fill="#474747" d="M32.793,119.167c-3.275-2.982-6.172-8.579-7.944-12.554
		c-1.671-3.746-4.054-6.797-6.123-10.457C13.266,86.501,7.915,77.29,2.351,67.662c-1.189-2.058-3.373-4.381-1.803-6.787
		c1.386-2.123,3.709-2.759,5.848-4.024c4.427-2.621,18.432-10.527,19.787-11.502c1.919-1.38,66.365-37.046,69.811-40.48
		c3.753,0,7.748-7.298,11.807-4.022c3.293,2.656,4.321,7.712,7.125,10.854c0,2.114,2.805,5.192,3.88,7.063
		c1.496,2.603,2.94,5.234,4.445,7.831c3.242,5.594,6.39,10.969,9.656,16.605c1.875,3.235,3.723,6.486,5.599,9.722
		c1.875,3.232,2.388,5.042-0.838,7.45c-4.857,3.625-10.642,6.248-15.839,9.203c-3.004,1.708-14.957,7.758-15.444,9.169
		c-2.464,0.588-4.709,2.44-6.813,3.704c-1.97,1.185-18.427,10.38-23.33,13.41c-2.033,1.257-4.264,2.119-6.077,3.508
		c-2.171,1.665-5.389,2.486-7.48,4.572c-2.447,0.781-4.565,2.375-6.699,3.65c-2.629,1.571-5.182,3.062-7.783,4.499
		C43.676,114.587,38.138,119.644,32.793,119.167 M36.066,112.762c1.606,0.077,3.917-1.313,5.153-2.202
		c2.131-1.531,4.603-2.431,6.719-3.922c3.539-2.494,7.325-4.286,11.009-6.332c3.777-2.097,7.958-4.292,11.468-6.652
		c2.175-1.463,4.563-2.563,6.797-3.927c2.072-1.266,14.86-8.016,18.498-10.618c2.112-1.511,17.942-10.519,19.493-11.367
		c2.665-1.459,5.31-2.964,7.834-4.657c1.686,0,2.933-2.277,4.697-2.277c1.237-1.536,3.979-1.634,4.946-3.423
		c2.156-3.992-2.684-9.733-4.971-13.435c-2.849-4.61-5.492-9.548-8.268-14.396c-2.336-4.077-4.338-8.5-7.105-12.208
		c-1.013-1.357-1.736-2.866-2.638-4.411c-0.89-1.527-1.791-4.315-3.296-5.29c-3.989-2.582-10.224,2.905-13.651,4.904
		c-4.796,2.798-9.249,5.404-14.076,8.119c-8.408,4.729-16.769,9.574-25.103,14.484c-4.053,2.387-7.977,4.716-12.158,7.09
		c-3.813,2.166-7.956,4.039-11.35,6.516c-3.753,2.737-8.058,4.342-11.956,6.924c-3.153,2.089-10.079,3.938-11.366,7.972
		c0,4.514,4.697,10.508,7.26,14.234c0,1.632,2.183,3.896,3.029,5.368c1.214,2.11,2.505,4.233,3.585,6.408
		c2.024,4.075,4.47,7.609,6.669,11.569C28.937,104.204,32.111,112.571,36.066,112.762"/>
	<path fill-rule="evenodd" fill="#474747" d="M134.283,106.784c-23.344-0.096-46.689,0.193-70.033-0.143
		c6.072-4.23,12.809-7.771,19.29-11.332c2.422-1.33,5.563-4.21,8.399-4.332c3.934-0.17,7.959,0.218,11.904,0.222
		c8.222,0.009,16.442-0.164,24.665-0.136c1.972,0.006,3.944,0.024,5.916,0.063c0.138,1.991,0.167,3.988,0.166,5.983
		C134.591,98.115,135.013,106.648,134.283,106.784"/>
	<path fill-rule="evenodd" fill="#474747" d="M29.377,97.816c-3.159-5.398-6.212-10.858-9.355-16.267
		c-1.107-1.906-4.375-5.292-2.434-7.179c1.771-1.722,3.06-3.88,3.751-6.25c0.73-2.506,0.807-5.161,0.493-7.74
		c-1.179-1.812,0.234-2.938,1.749-3.76c2.786-1.512,6.522-3.166,8.643-5.35c1.624-0.115,3.441-1.755,4.988-2.612
		c2.281-1.264,4.625-2.462,6.684-4.078c1.558,0,4.452-2.158,5.792-3.104c2.369-1.672,5.408-3.175,8.085-4.673
		c9.353-5.235,18.291-10.562,27.698-15.948c2.004-1.147,5.114-3.974,7.443-3.713c1.834,0.205,3.669,2.562,5.545,3.5
		c1.931,0.966,4.496,1.811,6.691,1.594c1.155-0.114,2.28-0.41,3.43-0.563c2.478-0.333,2.625,0.675,3.794,2.685
		c3.144,5.405,6.202,10.861,9.363,16.258c0.791,1.351,1.585,2.237,1.585,3.823c-0.801,0.71-1.529,1.5-2.167,2.359
		c-1.565,2.108-2.537,4.607-2.875,7.208c-0.292,2.238,0.884,4.945,0.487,6.944c-0.308,1.551-3.035,2.425-4.243,3.101
		c-3.513,1.966-7.241,5.289-11.13,6.294c-11.608,7.064-23.431,13.77-35.217,20.534c-3.775,2.166-7.548,4.339-11.309,6.531
		c-1.876,1.095-3.751,2.193-5.62,3.3c-0.935,0.552-1.867,1.105-2.799,1.661c-0.712,0.034-1.424,0.034-2.135,0
		c-1.728-1.918-4.301-3.973-6.833-4.555c-1.755,0-3.137-0.735-4.948-0.484C32.836,97.567,31.107,98.125,29.377,97.816
		 M44.607,86.144c0.446-0.809,1.374-0.786,2.086-1.473c1.07-1.032,2.085-2.139,2.824-3.438c1.522-2.677,1.438-6.61-0.107-9.238
		c-2.883-4.904-8.616-6.51-13.676-3.957c-4.115,2.076-6.581,8.396-4.33,12.519c1.591,2.914,2.761,4.221,5.878,5.589
		c1.449,0.635,2.417,0.376,3.99,0.438C42.34,86.625,43.682,85.858,44.607,86.144 M77.916,79.312
		c9.243-2.005,10.086-13.934,8.092-21.305c-2.373-8.773-10.166-17.757-19.714-17.912c-12.535-0.204-14.838,12.686-11.779,22.382
		C57.5,71.946,67.131,81.649,77.916,79.312 M90.727,47.142c2.452,3.941,7.413,7.341,12.392,5.042
		c4.914-2.27,6.932-6.901,6.255-12.158c-2.027-5.441-7.394-8.591-13.044-6.727C90.961,35.071,87.624,42.158,90.727,47.142"/>
	<path fill-rule="evenodd" fill="#474747" d="M134.141,88.707c-12.858,0-25.717,0-38.574,0c6.339-4.109,12.963-7.751,19.5-11.53
		c3.11-1.798,6.236-3.57,9.341-5.379c3.264-1.901,6.562-4.509,10.16-5.724C134.536,68.497,135.92,88.125,134.141,88.707"/>
	<path fill-rule="evenodd" fill="#474747" d="M42.188,82.585c-6.147,2.845-10.417-7.731-4.705-10.976
		C45.241,67.204,50.665,80.023,42.188,82.585"/>
	<path fill-rule="evenodd" fill="#474747" d="M75.496,72.622c-3.072,1.62-8.122,0.923-9.822-2.42
		c-0.149-1.241-0.028-2.757,1.224-3.402c2.269-1.168,3.777,0.983,5.752,1.837c0.753-0.93-1.824-5.15-2.847-5.552
		c-3.219,1.496-7.642,0.942-10.006-1.737c-2.12-2.402-2.768-5.461-1.619-8.492c0.458-1.209,1.219-2.259,2.124-3.171
		c1.862-1.88,0.618-1.37,0.246-3.642c-0.738-4.5,4.568,0.729,4.72,0.604c2.059-1.703,6.577-0.375,8.557,0.877
		c2.17,1.372,3.517,5.146,0.181,6.185c-2.788,0.868-3.875-2.983-6.622-2.58c0.153,1.456,1.093,2.662,1.846,3.856
		c1.542,2.443,1.068,2.104,4.041,1.844c4.344-0.38,6.859,1.229,8.563,5.129c1.601,3.658-0.569,6.792-3.347,9.099
		c0.549,1.154,2.385,3.471,0.222,4.124C77.172,75.643,76.161,73.618,75.496,72.622 M74.5,63.939
		c0.767,1.578,3.301,4.224,2.375,0.387C76.318,62.017,72.678,61.632,74.5,63.939 M64.107,52.836
		c-2.697,1.472-0.96,6.655,3.132,5.267C66.256,56.287,65.396,54.347,64.107,52.836z"/>
	<path fill-rule="evenodd" fill="#474747" d="M73.788,62.515c2.013-1.932,3.628,2.415,2.847,3.985
		C75.457,66.726,73.689,63.46,73.788,62.515"/>
	<path fill-rule="evenodd" fill="#474747" d="M67.239,58.103c-4.092,1.389-5.829-3.795-3.132-5.267
		C65.396,54.347,66.256,56.287,67.239,58.103z"/>
	<path fill-rule="evenodd" fill="#474747" d="M93.573,44.154c-0.243-6.032,7.134-10.861,11.066-4.628
		C109.435,47.128,96.637,52.691,93.573,44.154"/>
</g>
</svg>
